M48
;GenerationSoftware,Autodesk,EAGLE,9.6.2*%
;CreationDate,2020-10-04T16:57:21Z*%
FMAT,2
ICI,OFF
METRIC,TZ,000.000
T8C0.350
T7C0.813
T6C0.900
T5C1.000
T4C1.016
T3C1.100
T2C1.499
T1C2.750
%
G90
M71
T1
X61500Y3500
X3500Y3500
X61500Y26500
X3500Y26500
T2
X42000Y8630
X42000Y23870
T3
X13500Y21190
X13500Y28810
T4
X38850Y4770
X38850Y2230
X36310Y4770
X43930Y4770
X36310Y2230
X33770Y4770
X33770Y2230
X31230Y4770
X31230Y2230
X28690Y4770
X28690Y2230
X26150Y4770
X26150Y2230
X17370Y33000
X2130Y33000
X23610Y4770
X23610Y2230
X21070Y4770
X21070Y2230
X18530Y2230
X15990Y4770
X56630Y2230
X15990Y2230
X13450Y4770
X13450Y2230
X10910Y4770
X10910Y2230
X8370Y4770
X8370Y2230
X56630Y4770
X18530Y4770
X54090Y4770
X54090Y2230
X51550Y4770
X51550Y2230
X49010Y4770
X49010Y2230
X46470Y4770
X46470Y2230
X43930Y2230
X41390Y4770
X41390Y2230
T5
X30080Y33000
X27540Y33000
X25000Y33000
X22460Y33000
X17800Y17670
X17800Y13860
X17800Y10050
X35580Y9415
X35580Y13225
X35580Y18305
X35580Y22115
X19920Y33000
X17800Y21480
T6
X36500Y34250
X36500Y29250
T7
X9790Y11500
X4710Y11500
X7500Y29310
X7500Y21690
X4710Y18750
X9790Y18750
X17960Y26000
X23040Y26000
X42500Y27960
X42500Y33040
T8
X31902Y11582
X38913Y16561
M30