G04 EAGLE Gerber RS-274X export*
G75*
%MOMM*%
%FSLAX34Y34*%
%LPD*%
%INBottom Copper*%
%IPPOS*%
%AMOC8*
5,1,8,0,0,1.08239X$1,22.5*%
G01*
%ADD10P,1.429621X8X22.500000*%
%ADD11C,1.320800*%
%ADD12R,2.000000X0.600000*%
%ADD13C,1.700000*%
%ADD14P,1.429621X8X292.500000*%
%ADD15C,1.508000*%
%ADD16P,1.649562X8X202.500000*%
%ADD17R,1.300000X1.500000*%
%ADD18R,1.803000X1.600000*%
%ADD19P,1.429621X8X112.500000*%
%ADD20C,2.247900*%
%ADD21C,1.422400*%
%ADD22R,1.508000X1.508000*%
%ADD23R,1.400000X1.000000*%
%ADD24C,0.203200*%
%ADD25C,0.508000*%
%ADD26C,0.304800*%
%ADD27C,0.756400*%

G36*
X79151Y11442D02*
X79151Y11442D01*
X79223Y11444D01*
X79272Y11462D01*
X79323Y11470D01*
X79387Y11504D01*
X79454Y11529D01*
X79495Y11561D01*
X79541Y11586D01*
X79590Y11638D01*
X79646Y11682D01*
X79674Y11726D01*
X79710Y11764D01*
X79740Y11829D01*
X79779Y11889D01*
X79792Y11940D01*
X79814Y11987D01*
X79821Y12058D01*
X79839Y12128D01*
X79835Y12180D01*
X79841Y12231D01*
X79825Y12302D01*
X79820Y12373D01*
X79800Y12421D01*
X79788Y12472D01*
X79752Y12533D01*
X79724Y12599D01*
X79679Y12655D01*
X79662Y12683D01*
X79644Y12698D01*
X79619Y12730D01*
X74047Y18302D01*
X74047Y26298D01*
X79702Y31953D01*
X87698Y31953D01*
X93353Y26298D01*
X93353Y18302D01*
X87781Y12730D01*
X87739Y12672D01*
X87690Y12620D01*
X87668Y12573D01*
X87638Y12531D01*
X87617Y12462D01*
X87586Y12397D01*
X87581Y12345D01*
X87565Y12295D01*
X87567Y12224D01*
X87559Y12153D01*
X87570Y12102D01*
X87572Y12050D01*
X87596Y11982D01*
X87612Y11912D01*
X87638Y11867D01*
X87656Y11819D01*
X87701Y11763D01*
X87738Y11701D01*
X87777Y11667D01*
X87810Y11627D01*
X87870Y11588D01*
X87925Y11541D01*
X87973Y11522D01*
X88017Y11494D01*
X88086Y11476D01*
X88153Y11449D01*
X88224Y11441D01*
X88255Y11433D01*
X88279Y11435D01*
X88320Y11431D01*
X104480Y11431D01*
X104551Y11442D01*
X104623Y11444D01*
X104672Y11462D01*
X104723Y11470D01*
X104787Y11504D01*
X104854Y11529D01*
X104895Y11561D01*
X104941Y11586D01*
X104990Y11638D01*
X105046Y11682D01*
X105074Y11726D01*
X105110Y11764D01*
X105140Y11829D01*
X105179Y11889D01*
X105192Y11940D01*
X105214Y11987D01*
X105221Y12058D01*
X105239Y12128D01*
X105235Y12180D01*
X105241Y12231D01*
X105225Y12302D01*
X105220Y12373D01*
X105200Y12421D01*
X105188Y12472D01*
X105152Y12533D01*
X105124Y12599D01*
X105079Y12655D01*
X105062Y12683D01*
X105044Y12698D01*
X105019Y12730D01*
X99447Y18302D01*
X99447Y26298D01*
X105102Y31953D01*
X113098Y31953D01*
X118753Y26298D01*
X118753Y18302D01*
X113181Y12730D01*
X113139Y12672D01*
X113090Y12620D01*
X113068Y12573D01*
X113038Y12531D01*
X113017Y12462D01*
X112986Y12397D01*
X112981Y12345D01*
X112965Y12295D01*
X112967Y12224D01*
X112959Y12153D01*
X112970Y12102D01*
X112972Y12050D01*
X112996Y11982D01*
X113012Y11912D01*
X113038Y11867D01*
X113056Y11819D01*
X113101Y11763D01*
X113138Y11701D01*
X113177Y11667D01*
X113210Y11627D01*
X113270Y11588D01*
X113325Y11541D01*
X113373Y11522D01*
X113417Y11494D01*
X113486Y11476D01*
X113553Y11449D01*
X113624Y11441D01*
X113655Y11433D01*
X113679Y11435D01*
X113720Y11431D01*
X129880Y11431D01*
X129951Y11442D01*
X130023Y11444D01*
X130072Y11462D01*
X130123Y11470D01*
X130187Y11504D01*
X130254Y11529D01*
X130295Y11561D01*
X130341Y11586D01*
X130390Y11638D01*
X130446Y11682D01*
X130474Y11726D01*
X130510Y11764D01*
X130540Y11829D01*
X130579Y11889D01*
X130592Y11940D01*
X130614Y11987D01*
X130621Y12058D01*
X130639Y12128D01*
X130635Y12180D01*
X130641Y12231D01*
X130625Y12302D01*
X130620Y12373D01*
X130600Y12421D01*
X130588Y12472D01*
X130552Y12533D01*
X130524Y12599D01*
X130479Y12655D01*
X130462Y12683D01*
X130444Y12698D01*
X130419Y12730D01*
X124847Y18302D01*
X124847Y26298D01*
X130502Y31953D01*
X138498Y31953D01*
X144153Y26298D01*
X144153Y18302D01*
X138581Y12730D01*
X138539Y12672D01*
X138490Y12620D01*
X138468Y12573D01*
X138438Y12531D01*
X138417Y12462D01*
X138386Y12397D01*
X138381Y12345D01*
X138365Y12295D01*
X138367Y12224D01*
X138359Y12153D01*
X138370Y12102D01*
X138372Y12050D01*
X138396Y11982D01*
X138412Y11912D01*
X138438Y11867D01*
X138456Y11819D01*
X138501Y11763D01*
X138538Y11701D01*
X138577Y11667D01*
X138610Y11627D01*
X138670Y11588D01*
X138725Y11541D01*
X138773Y11522D01*
X138817Y11494D01*
X138886Y11476D01*
X138953Y11449D01*
X139024Y11441D01*
X139055Y11433D01*
X139079Y11435D01*
X139120Y11431D01*
X154562Y11431D01*
X154633Y11442D01*
X154704Y11444D01*
X154753Y11462D01*
X154805Y11470D01*
X154868Y11504D01*
X154935Y11529D01*
X154976Y11561D01*
X155022Y11586D01*
X155072Y11638D01*
X155128Y11682D01*
X155156Y11726D01*
X155192Y11764D01*
X155222Y11829D01*
X155261Y11889D01*
X155273Y11940D01*
X155295Y11987D01*
X155303Y12058D01*
X155321Y12128D01*
X155317Y12180D01*
X155322Y12231D01*
X155307Y12302D01*
X155301Y12373D01*
X155281Y12421D01*
X155270Y12472D01*
X155233Y12533D01*
X155205Y12599D01*
X155160Y12655D01*
X155144Y12683D01*
X155126Y12698D01*
X155100Y12730D01*
X149739Y18091D01*
X149739Y20777D01*
X159138Y20777D01*
X159158Y20780D01*
X159177Y20778D01*
X159279Y20800D01*
X159381Y20817D01*
X159398Y20826D01*
X159418Y20830D01*
X159507Y20883D01*
X159598Y20932D01*
X159612Y20946D01*
X159629Y20956D01*
X159696Y21035D01*
X159767Y21110D01*
X159776Y21128D01*
X159789Y21143D01*
X159827Y21239D01*
X159871Y21333D01*
X159873Y21353D01*
X159881Y21371D01*
X159899Y21538D01*
X159899Y22301D01*
X159901Y22301D01*
X159901Y21538D01*
X159904Y21518D01*
X159902Y21499D01*
X159924Y21397D01*
X159941Y21295D01*
X159950Y21278D01*
X159954Y21258D01*
X160007Y21169D01*
X160056Y21078D01*
X160070Y21064D01*
X160080Y21047D01*
X160159Y20980D01*
X160234Y20909D01*
X160252Y20900D01*
X160267Y20887D01*
X160363Y20848D01*
X160457Y20805D01*
X160477Y20803D01*
X160495Y20795D01*
X160662Y20777D01*
X170061Y20777D01*
X170061Y18091D01*
X164700Y12730D01*
X164658Y12672D01*
X164608Y12620D01*
X164587Y12573D01*
X164556Y12531D01*
X164535Y12462D01*
X164505Y12397D01*
X164499Y12345D01*
X164484Y12295D01*
X164486Y12224D01*
X164478Y12153D01*
X164489Y12102D01*
X164490Y12050D01*
X164515Y11982D01*
X164530Y11912D01*
X164557Y11867D01*
X164575Y11819D01*
X164619Y11763D01*
X164656Y11701D01*
X164696Y11667D01*
X164728Y11627D01*
X164789Y11588D01*
X164843Y11541D01*
X164891Y11522D01*
X164935Y11494D01*
X165005Y11476D01*
X165071Y11449D01*
X165143Y11441D01*
X165174Y11433D01*
X165197Y11435D01*
X165238Y11431D01*
X180680Y11431D01*
X180751Y11442D01*
X180823Y11444D01*
X180872Y11462D01*
X180923Y11470D01*
X180987Y11504D01*
X181054Y11529D01*
X181095Y11561D01*
X181141Y11586D01*
X181190Y11638D01*
X181246Y11682D01*
X181274Y11726D01*
X181310Y11764D01*
X181340Y11829D01*
X181379Y11889D01*
X181392Y11940D01*
X181414Y11987D01*
X181421Y12058D01*
X181439Y12128D01*
X181435Y12180D01*
X181441Y12231D01*
X181425Y12302D01*
X181420Y12373D01*
X181400Y12421D01*
X181388Y12472D01*
X181352Y12533D01*
X181324Y12599D01*
X181279Y12655D01*
X181262Y12683D01*
X181244Y12698D01*
X181219Y12730D01*
X175647Y18302D01*
X175647Y26298D01*
X181302Y31953D01*
X189298Y31953D01*
X194953Y26298D01*
X194953Y18302D01*
X189381Y12730D01*
X189339Y12672D01*
X189290Y12620D01*
X189268Y12573D01*
X189238Y12531D01*
X189217Y12462D01*
X189186Y12397D01*
X189181Y12345D01*
X189165Y12295D01*
X189167Y12224D01*
X189159Y12153D01*
X189170Y12102D01*
X189172Y12050D01*
X189196Y11982D01*
X189212Y11912D01*
X189238Y11867D01*
X189256Y11819D01*
X189301Y11763D01*
X189338Y11701D01*
X189377Y11667D01*
X189410Y11627D01*
X189470Y11588D01*
X189525Y11541D01*
X189573Y11522D01*
X189617Y11494D01*
X189686Y11476D01*
X189753Y11449D01*
X189824Y11441D01*
X189855Y11433D01*
X189879Y11435D01*
X189920Y11431D01*
X205362Y11431D01*
X205433Y11442D01*
X205504Y11444D01*
X205553Y11462D01*
X205605Y11470D01*
X205668Y11504D01*
X205735Y11529D01*
X205776Y11561D01*
X205822Y11586D01*
X205872Y11638D01*
X205928Y11682D01*
X205956Y11726D01*
X205992Y11764D01*
X206022Y11829D01*
X206061Y11889D01*
X206073Y11940D01*
X206095Y11987D01*
X206103Y12058D01*
X206121Y12128D01*
X206117Y12180D01*
X206122Y12231D01*
X206107Y12302D01*
X206101Y12373D01*
X206081Y12421D01*
X206070Y12472D01*
X206033Y12533D01*
X206005Y12599D01*
X205960Y12655D01*
X205944Y12683D01*
X205926Y12698D01*
X205900Y12730D01*
X200539Y18091D01*
X200539Y20777D01*
X209938Y20777D01*
X209958Y20780D01*
X209977Y20778D01*
X210079Y20800D01*
X210181Y20817D01*
X210198Y20826D01*
X210218Y20830D01*
X210307Y20883D01*
X210398Y20932D01*
X210412Y20946D01*
X210429Y20956D01*
X210496Y21035D01*
X210567Y21110D01*
X210576Y21128D01*
X210589Y21143D01*
X210627Y21239D01*
X210671Y21333D01*
X210673Y21353D01*
X210681Y21371D01*
X210699Y21538D01*
X210699Y22301D01*
X210701Y22301D01*
X210701Y21538D01*
X210704Y21518D01*
X210702Y21499D01*
X210724Y21397D01*
X210741Y21295D01*
X210750Y21278D01*
X210754Y21258D01*
X210807Y21169D01*
X210856Y21078D01*
X210870Y21064D01*
X210880Y21047D01*
X210959Y20980D01*
X211034Y20909D01*
X211052Y20900D01*
X211067Y20887D01*
X211163Y20848D01*
X211257Y20805D01*
X211277Y20803D01*
X211295Y20795D01*
X211462Y20777D01*
X220861Y20777D01*
X220861Y18091D01*
X215500Y12730D01*
X215458Y12672D01*
X215408Y12620D01*
X215387Y12573D01*
X215356Y12531D01*
X215335Y12462D01*
X215305Y12397D01*
X215299Y12345D01*
X215284Y12295D01*
X215286Y12224D01*
X215278Y12153D01*
X215289Y12102D01*
X215290Y12050D01*
X215315Y11982D01*
X215330Y11912D01*
X215357Y11867D01*
X215375Y11819D01*
X215419Y11763D01*
X215456Y11701D01*
X215496Y11667D01*
X215528Y11627D01*
X215589Y11588D01*
X215643Y11541D01*
X215691Y11522D01*
X215735Y11494D01*
X215805Y11476D01*
X215871Y11449D01*
X215943Y11441D01*
X215974Y11433D01*
X215997Y11435D01*
X216038Y11431D01*
X231480Y11431D01*
X231551Y11442D01*
X231623Y11444D01*
X231672Y11462D01*
X231723Y11470D01*
X231787Y11504D01*
X231854Y11529D01*
X231895Y11561D01*
X231941Y11586D01*
X231990Y11638D01*
X232046Y11682D01*
X232074Y11726D01*
X232110Y11764D01*
X232140Y11829D01*
X232179Y11889D01*
X232192Y11940D01*
X232214Y11987D01*
X232221Y12058D01*
X232239Y12128D01*
X232235Y12180D01*
X232241Y12231D01*
X232225Y12302D01*
X232220Y12373D01*
X232200Y12421D01*
X232188Y12472D01*
X232152Y12533D01*
X232124Y12599D01*
X232079Y12655D01*
X232062Y12683D01*
X232044Y12698D01*
X232019Y12730D01*
X226447Y18302D01*
X226447Y26298D01*
X232102Y31953D01*
X240098Y31953D01*
X245753Y26298D01*
X245753Y18302D01*
X240181Y12730D01*
X240139Y12672D01*
X240090Y12620D01*
X240068Y12573D01*
X240038Y12531D01*
X240017Y12462D01*
X239986Y12397D01*
X239981Y12345D01*
X239965Y12295D01*
X239967Y12224D01*
X239959Y12153D01*
X239970Y12102D01*
X239972Y12050D01*
X239996Y11982D01*
X240012Y11912D01*
X240038Y11867D01*
X240056Y11819D01*
X240101Y11763D01*
X240138Y11701D01*
X240177Y11667D01*
X240210Y11627D01*
X240270Y11588D01*
X240325Y11541D01*
X240373Y11522D01*
X240417Y11494D01*
X240486Y11476D01*
X240553Y11449D01*
X240624Y11441D01*
X240655Y11433D01*
X240679Y11435D01*
X240720Y11431D01*
X256880Y11431D01*
X256951Y11442D01*
X257023Y11444D01*
X257072Y11462D01*
X257123Y11470D01*
X257187Y11504D01*
X257254Y11529D01*
X257295Y11561D01*
X257341Y11586D01*
X257390Y11638D01*
X257446Y11682D01*
X257474Y11726D01*
X257510Y11764D01*
X257540Y11829D01*
X257579Y11889D01*
X257592Y11940D01*
X257614Y11987D01*
X257621Y12058D01*
X257639Y12128D01*
X257635Y12180D01*
X257641Y12231D01*
X257625Y12302D01*
X257620Y12373D01*
X257600Y12421D01*
X257588Y12472D01*
X257552Y12533D01*
X257524Y12599D01*
X257479Y12655D01*
X257462Y12683D01*
X257444Y12698D01*
X257419Y12730D01*
X251847Y18302D01*
X251847Y26298D01*
X257502Y31953D01*
X265498Y31953D01*
X271153Y26298D01*
X271153Y18302D01*
X265581Y12730D01*
X265539Y12672D01*
X265490Y12620D01*
X265468Y12573D01*
X265438Y12531D01*
X265417Y12462D01*
X265386Y12397D01*
X265381Y12345D01*
X265365Y12295D01*
X265367Y12224D01*
X265359Y12153D01*
X265370Y12102D01*
X265372Y12050D01*
X265396Y11982D01*
X265412Y11912D01*
X265438Y11867D01*
X265456Y11819D01*
X265501Y11763D01*
X265538Y11701D01*
X265577Y11667D01*
X265610Y11627D01*
X265670Y11588D01*
X265725Y11541D01*
X265773Y11522D01*
X265817Y11494D01*
X265886Y11476D01*
X265953Y11449D01*
X266024Y11441D01*
X266055Y11433D01*
X266079Y11435D01*
X266120Y11431D01*
X282280Y11431D01*
X282351Y11442D01*
X282423Y11444D01*
X282472Y11462D01*
X282523Y11470D01*
X282587Y11504D01*
X282654Y11529D01*
X282695Y11561D01*
X282741Y11586D01*
X282790Y11638D01*
X282846Y11682D01*
X282874Y11726D01*
X282910Y11764D01*
X282940Y11829D01*
X282979Y11889D01*
X282992Y11940D01*
X283014Y11987D01*
X283021Y12058D01*
X283039Y12128D01*
X283035Y12180D01*
X283041Y12231D01*
X283025Y12302D01*
X283020Y12373D01*
X283000Y12421D01*
X282988Y12472D01*
X282952Y12533D01*
X282924Y12599D01*
X282879Y12655D01*
X282862Y12683D01*
X282844Y12698D01*
X282819Y12730D01*
X277247Y18302D01*
X277247Y26298D01*
X282902Y31953D01*
X290898Y31953D01*
X296553Y26298D01*
X296553Y18302D01*
X290981Y12730D01*
X290939Y12672D01*
X290890Y12620D01*
X290868Y12573D01*
X290838Y12531D01*
X290817Y12462D01*
X290786Y12397D01*
X290781Y12345D01*
X290765Y12295D01*
X290767Y12224D01*
X290759Y12153D01*
X290770Y12102D01*
X290772Y12050D01*
X290796Y11982D01*
X290812Y11912D01*
X290838Y11867D01*
X290856Y11819D01*
X290901Y11763D01*
X290938Y11701D01*
X290977Y11667D01*
X291010Y11627D01*
X291070Y11588D01*
X291125Y11541D01*
X291173Y11522D01*
X291217Y11494D01*
X291286Y11476D01*
X291353Y11449D01*
X291424Y11441D01*
X291455Y11433D01*
X291479Y11435D01*
X291520Y11431D01*
X307680Y11431D01*
X307751Y11442D01*
X307823Y11444D01*
X307872Y11462D01*
X307923Y11470D01*
X307987Y11504D01*
X308054Y11529D01*
X308095Y11561D01*
X308141Y11586D01*
X308190Y11638D01*
X308246Y11682D01*
X308274Y11726D01*
X308310Y11764D01*
X308340Y11829D01*
X308379Y11889D01*
X308392Y11940D01*
X308414Y11987D01*
X308421Y12058D01*
X308439Y12128D01*
X308435Y12180D01*
X308441Y12231D01*
X308425Y12302D01*
X308420Y12373D01*
X308400Y12421D01*
X308388Y12472D01*
X308352Y12533D01*
X308324Y12599D01*
X308279Y12655D01*
X308262Y12683D01*
X308244Y12698D01*
X308219Y12730D01*
X302647Y18302D01*
X302647Y26298D01*
X308302Y31953D01*
X316298Y31953D01*
X321953Y26298D01*
X321953Y18302D01*
X316381Y12730D01*
X316339Y12672D01*
X316290Y12620D01*
X316268Y12573D01*
X316238Y12531D01*
X316217Y12462D01*
X316186Y12397D01*
X316181Y12345D01*
X316165Y12295D01*
X316167Y12224D01*
X316159Y12153D01*
X316170Y12102D01*
X316172Y12050D01*
X316196Y11982D01*
X316212Y11912D01*
X316238Y11867D01*
X316256Y11819D01*
X316301Y11763D01*
X316338Y11701D01*
X316377Y11667D01*
X316410Y11627D01*
X316470Y11588D01*
X316525Y11541D01*
X316573Y11522D01*
X316617Y11494D01*
X316686Y11476D01*
X316753Y11449D01*
X316824Y11441D01*
X316855Y11433D01*
X316879Y11435D01*
X316920Y11431D01*
X332362Y11431D01*
X332433Y11442D01*
X332504Y11444D01*
X332553Y11462D01*
X332605Y11470D01*
X332668Y11504D01*
X332735Y11529D01*
X332776Y11561D01*
X332822Y11586D01*
X332872Y11638D01*
X332928Y11682D01*
X332956Y11726D01*
X332992Y11764D01*
X333022Y11829D01*
X333061Y11889D01*
X333073Y11940D01*
X333095Y11987D01*
X333103Y12058D01*
X333121Y12128D01*
X333117Y12180D01*
X333122Y12231D01*
X333107Y12302D01*
X333101Y12373D01*
X333081Y12421D01*
X333070Y12472D01*
X333033Y12533D01*
X333005Y12599D01*
X332960Y12655D01*
X332944Y12683D01*
X332926Y12698D01*
X332900Y12730D01*
X327539Y18091D01*
X327539Y20777D01*
X336938Y20777D01*
X336958Y20780D01*
X336977Y20778D01*
X337079Y20800D01*
X337181Y20817D01*
X337198Y20826D01*
X337218Y20830D01*
X337307Y20883D01*
X337398Y20932D01*
X337412Y20946D01*
X337429Y20956D01*
X337496Y21035D01*
X337567Y21110D01*
X337576Y21128D01*
X337589Y21143D01*
X337627Y21239D01*
X337671Y21333D01*
X337673Y21353D01*
X337681Y21371D01*
X337699Y21538D01*
X337699Y22301D01*
X337701Y22301D01*
X337701Y21538D01*
X337704Y21518D01*
X337702Y21499D01*
X337724Y21397D01*
X337741Y21295D01*
X337750Y21278D01*
X337754Y21258D01*
X337807Y21169D01*
X337856Y21078D01*
X337870Y21064D01*
X337880Y21047D01*
X337959Y20980D01*
X338034Y20909D01*
X338052Y20900D01*
X338067Y20887D01*
X338163Y20848D01*
X338257Y20805D01*
X338277Y20803D01*
X338295Y20795D01*
X338462Y20777D01*
X347861Y20777D01*
X347861Y18091D01*
X342500Y12730D01*
X342458Y12672D01*
X342408Y12620D01*
X342387Y12573D01*
X342356Y12531D01*
X342335Y12462D01*
X342305Y12397D01*
X342299Y12345D01*
X342284Y12295D01*
X342286Y12224D01*
X342278Y12153D01*
X342289Y12102D01*
X342290Y12050D01*
X342315Y11982D01*
X342330Y11912D01*
X342357Y11867D01*
X342375Y11819D01*
X342419Y11763D01*
X342456Y11701D01*
X342496Y11667D01*
X342528Y11627D01*
X342589Y11588D01*
X342643Y11541D01*
X342691Y11522D01*
X342735Y11494D01*
X342805Y11476D01*
X342871Y11449D01*
X342943Y11441D01*
X342974Y11433D01*
X342997Y11435D01*
X343038Y11431D01*
X358480Y11431D01*
X358551Y11442D01*
X358623Y11444D01*
X358672Y11462D01*
X358723Y11470D01*
X358787Y11504D01*
X358854Y11529D01*
X358895Y11561D01*
X358941Y11586D01*
X358990Y11638D01*
X359046Y11682D01*
X359074Y11726D01*
X359110Y11764D01*
X359140Y11829D01*
X359179Y11889D01*
X359192Y11940D01*
X359214Y11987D01*
X359221Y12058D01*
X359239Y12128D01*
X359235Y12180D01*
X359241Y12231D01*
X359225Y12302D01*
X359220Y12373D01*
X359200Y12421D01*
X359188Y12472D01*
X359152Y12533D01*
X359124Y12599D01*
X359079Y12655D01*
X359062Y12683D01*
X359044Y12698D01*
X359019Y12730D01*
X353447Y18302D01*
X353447Y26298D01*
X359102Y31953D01*
X367098Y31953D01*
X372753Y26298D01*
X372753Y18302D01*
X367181Y12730D01*
X367139Y12672D01*
X367090Y12620D01*
X367068Y12573D01*
X367038Y12531D01*
X367017Y12462D01*
X366986Y12397D01*
X366981Y12345D01*
X366965Y12295D01*
X366967Y12224D01*
X366959Y12153D01*
X366970Y12102D01*
X366972Y12050D01*
X366996Y11982D01*
X367012Y11912D01*
X367038Y11867D01*
X367056Y11819D01*
X367101Y11763D01*
X367138Y11701D01*
X367177Y11667D01*
X367210Y11627D01*
X367270Y11588D01*
X367325Y11541D01*
X367373Y11522D01*
X367417Y11494D01*
X367486Y11476D01*
X367553Y11449D01*
X367624Y11441D01*
X367655Y11433D01*
X367679Y11435D01*
X367720Y11431D01*
X383880Y11431D01*
X383951Y11442D01*
X384023Y11444D01*
X384072Y11462D01*
X384123Y11470D01*
X384187Y11504D01*
X384254Y11529D01*
X384295Y11561D01*
X384341Y11586D01*
X384390Y11638D01*
X384446Y11682D01*
X384474Y11726D01*
X384510Y11764D01*
X384540Y11829D01*
X384579Y11889D01*
X384592Y11940D01*
X384614Y11987D01*
X384621Y12058D01*
X384639Y12128D01*
X384635Y12180D01*
X384641Y12231D01*
X384625Y12302D01*
X384620Y12373D01*
X384600Y12421D01*
X384588Y12472D01*
X384552Y12533D01*
X384524Y12599D01*
X384479Y12655D01*
X384462Y12683D01*
X384444Y12698D01*
X384419Y12730D01*
X378847Y18302D01*
X378847Y26298D01*
X384502Y31953D01*
X392498Y31953D01*
X398153Y26298D01*
X398153Y18302D01*
X392581Y12730D01*
X392539Y12672D01*
X392490Y12620D01*
X392468Y12573D01*
X392438Y12531D01*
X392417Y12462D01*
X392386Y12397D01*
X392381Y12345D01*
X392365Y12295D01*
X392367Y12224D01*
X392359Y12153D01*
X392370Y12102D01*
X392372Y12050D01*
X392396Y11982D01*
X392412Y11912D01*
X392438Y11867D01*
X392456Y11819D01*
X392501Y11763D01*
X392538Y11701D01*
X392577Y11667D01*
X392610Y11627D01*
X392670Y11588D01*
X392725Y11541D01*
X392773Y11522D01*
X392817Y11494D01*
X392886Y11476D01*
X392953Y11449D01*
X393024Y11441D01*
X393055Y11433D01*
X393079Y11435D01*
X393120Y11431D01*
X408562Y11431D01*
X408633Y11442D01*
X408704Y11444D01*
X408753Y11462D01*
X408805Y11470D01*
X408868Y11504D01*
X408935Y11529D01*
X408976Y11561D01*
X409022Y11586D01*
X409072Y11638D01*
X409128Y11682D01*
X409156Y11726D01*
X409192Y11764D01*
X409222Y11829D01*
X409261Y11889D01*
X409273Y11940D01*
X409295Y11987D01*
X409303Y12058D01*
X409321Y12128D01*
X409317Y12180D01*
X409322Y12231D01*
X409307Y12302D01*
X409301Y12373D01*
X409281Y12421D01*
X409270Y12472D01*
X409233Y12533D01*
X409205Y12599D01*
X409160Y12655D01*
X409144Y12683D01*
X409126Y12698D01*
X409100Y12730D01*
X403739Y18091D01*
X403739Y20777D01*
X413138Y20777D01*
X413158Y20780D01*
X413177Y20778D01*
X413279Y20800D01*
X413381Y20817D01*
X413398Y20826D01*
X413418Y20830D01*
X413507Y20883D01*
X413598Y20932D01*
X413612Y20946D01*
X413629Y20956D01*
X413696Y21035D01*
X413767Y21110D01*
X413776Y21128D01*
X413789Y21143D01*
X413827Y21239D01*
X413871Y21333D01*
X413873Y21353D01*
X413881Y21371D01*
X413899Y21538D01*
X413899Y22301D01*
X413901Y22301D01*
X413901Y21538D01*
X413904Y21518D01*
X413902Y21499D01*
X413924Y21397D01*
X413941Y21295D01*
X413950Y21278D01*
X413954Y21258D01*
X414007Y21169D01*
X414056Y21078D01*
X414070Y21064D01*
X414080Y21047D01*
X414159Y20980D01*
X414234Y20909D01*
X414252Y20900D01*
X414267Y20887D01*
X414363Y20848D01*
X414457Y20805D01*
X414477Y20803D01*
X414495Y20795D01*
X414662Y20777D01*
X424061Y20777D01*
X424061Y18091D01*
X418700Y12730D01*
X418658Y12672D01*
X418608Y12620D01*
X418587Y12573D01*
X418556Y12531D01*
X418535Y12462D01*
X418505Y12397D01*
X418499Y12345D01*
X418484Y12295D01*
X418486Y12224D01*
X418478Y12153D01*
X418489Y12102D01*
X418490Y12050D01*
X418515Y11982D01*
X418530Y11912D01*
X418557Y11867D01*
X418575Y11819D01*
X418619Y11763D01*
X418656Y11701D01*
X418696Y11667D01*
X418728Y11627D01*
X418789Y11588D01*
X418843Y11541D01*
X418891Y11522D01*
X418935Y11494D01*
X419005Y11476D01*
X419071Y11449D01*
X419143Y11441D01*
X419174Y11433D01*
X419197Y11435D01*
X419238Y11431D01*
X434680Y11431D01*
X434751Y11442D01*
X434823Y11444D01*
X434872Y11462D01*
X434923Y11470D01*
X434987Y11504D01*
X435054Y11529D01*
X435095Y11561D01*
X435141Y11586D01*
X435190Y11638D01*
X435246Y11682D01*
X435274Y11726D01*
X435310Y11764D01*
X435340Y11829D01*
X435379Y11889D01*
X435392Y11940D01*
X435414Y11987D01*
X435421Y12058D01*
X435439Y12128D01*
X435435Y12180D01*
X435441Y12231D01*
X435425Y12302D01*
X435420Y12373D01*
X435400Y12421D01*
X435388Y12472D01*
X435352Y12533D01*
X435324Y12599D01*
X435279Y12655D01*
X435262Y12683D01*
X435244Y12698D01*
X435219Y12730D01*
X429647Y18302D01*
X429647Y26298D01*
X435302Y31953D01*
X443298Y31953D01*
X448953Y26298D01*
X448953Y18302D01*
X443381Y12730D01*
X443339Y12672D01*
X443290Y12620D01*
X443268Y12573D01*
X443238Y12531D01*
X443217Y12462D01*
X443186Y12397D01*
X443181Y12345D01*
X443165Y12295D01*
X443167Y12224D01*
X443159Y12153D01*
X443170Y12102D01*
X443172Y12050D01*
X443196Y11982D01*
X443212Y11912D01*
X443238Y11867D01*
X443256Y11819D01*
X443301Y11763D01*
X443338Y11701D01*
X443377Y11667D01*
X443410Y11627D01*
X443470Y11588D01*
X443525Y11541D01*
X443573Y11522D01*
X443617Y11494D01*
X443686Y11476D01*
X443753Y11449D01*
X443824Y11441D01*
X443855Y11433D01*
X443879Y11435D01*
X443920Y11431D01*
X460080Y11431D01*
X460151Y11442D01*
X460223Y11444D01*
X460272Y11462D01*
X460323Y11470D01*
X460387Y11504D01*
X460454Y11529D01*
X460495Y11561D01*
X460541Y11586D01*
X460590Y11638D01*
X460646Y11682D01*
X460674Y11726D01*
X460710Y11764D01*
X460740Y11829D01*
X460779Y11889D01*
X460792Y11940D01*
X460814Y11987D01*
X460821Y12058D01*
X460839Y12128D01*
X460835Y12180D01*
X460841Y12231D01*
X460825Y12302D01*
X460820Y12373D01*
X460800Y12421D01*
X460788Y12472D01*
X460752Y12533D01*
X460724Y12599D01*
X460679Y12655D01*
X460662Y12683D01*
X460644Y12698D01*
X460619Y12730D01*
X455047Y18302D01*
X455047Y26298D01*
X460702Y31953D01*
X468698Y31953D01*
X469119Y31532D01*
X469136Y31520D01*
X469148Y31504D01*
X469235Y31448D01*
X469319Y31388D01*
X469338Y31382D01*
X469355Y31371D01*
X469455Y31346D01*
X469554Y31316D01*
X469574Y31316D01*
X469593Y31311D01*
X469696Y31319D01*
X469800Y31322D01*
X469819Y31329D01*
X469839Y31330D01*
X469934Y31371D01*
X470031Y31406D01*
X470047Y31419D01*
X470065Y31427D01*
X470196Y31532D01*
X474248Y35584D01*
X474301Y35658D01*
X474361Y35727D01*
X474373Y35757D01*
X474392Y35784D01*
X474419Y35871D01*
X474453Y35955D01*
X474457Y35996D01*
X474464Y36019D01*
X474463Y36051D01*
X474471Y36122D01*
X474471Y38046D01*
X474457Y38136D01*
X474449Y38227D01*
X474437Y38257D01*
X474432Y38289D01*
X474389Y38369D01*
X474353Y38453D01*
X474327Y38485D01*
X474316Y38506D01*
X474293Y38528D01*
X474248Y38584D01*
X472639Y40193D01*
X472623Y40205D01*
X472611Y40220D01*
X472523Y40276D01*
X472439Y40337D01*
X472420Y40343D01*
X472404Y40353D01*
X472303Y40379D01*
X472204Y40409D01*
X472184Y40409D01*
X472165Y40413D01*
X472062Y40405D01*
X471959Y40403D01*
X471940Y40396D01*
X471920Y40394D01*
X471825Y40354D01*
X471727Y40318D01*
X471712Y40306D01*
X471694Y40298D01*
X471563Y40193D01*
X468909Y37539D01*
X466223Y37539D01*
X466223Y46938D01*
X466220Y46958D01*
X466222Y46977D01*
X466200Y47079D01*
X466183Y47181D01*
X466174Y47198D01*
X466170Y47218D01*
X466117Y47307D01*
X466068Y47398D01*
X466054Y47412D01*
X466044Y47429D01*
X465965Y47496D01*
X465890Y47567D01*
X465872Y47576D01*
X465857Y47589D01*
X465761Y47627D01*
X465667Y47671D01*
X465647Y47673D01*
X465629Y47681D01*
X465462Y47699D01*
X464699Y47699D01*
X464699Y47701D01*
X465462Y47701D01*
X465482Y47704D01*
X465501Y47702D01*
X465603Y47724D01*
X465705Y47741D01*
X465722Y47750D01*
X465742Y47754D01*
X465831Y47807D01*
X465922Y47856D01*
X465936Y47870D01*
X465953Y47880D01*
X466020Y47959D01*
X466091Y48034D01*
X466100Y48052D01*
X466113Y48067D01*
X466152Y48163D01*
X466195Y48257D01*
X466197Y48277D01*
X466205Y48295D01*
X466223Y48462D01*
X466223Y57861D01*
X468909Y57861D01*
X471511Y55259D01*
X471527Y55247D01*
X471539Y55232D01*
X471626Y55176D01*
X471710Y55115D01*
X471729Y55109D01*
X471746Y55099D01*
X471847Y55073D01*
X471945Y55043D01*
X471965Y55043D01*
X471985Y55039D01*
X472088Y55047D01*
X472191Y55049D01*
X472210Y55056D01*
X472230Y55058D01*
X472325Y55098D01*
X472422Y55134D01*
X472438Y55146D01*
X472456Y55154D01*
X472587Y55259D01*
X474248Y56920D01*
X474301Y56994D01*
X474361Y57063D01*
X474373Y57093D01*
X474392Y57120D01*
X474419Y57207D01*
X474453Y57291D01*
X474457Y57332D01*
X474464Y57355D01*
X474463Y57387D01*
X474471Y57458D01*
X474471Y122374D01*
X474457Y122464D01*
X474449Y122555D01*
X474437Y122585D01*
X474432Y122617D01*
X474389Y122697D01*
X474353Y122781D01*
X474327Y122813D01*
X474316Y122834D01*
X474293Y122856D01*
X474248Y122912D01*
X435395Y161765D01*
X435337Y161807D01*
X435285Y161856D01*
X435238Y161878D01*
X435196Y161909D01*
X435127Y161930D01*
X435062Y161960D01*
X435010Y161966D01*
X434960Y161981D01*
X434889Y161979D01*
X434818Y161987D01*
X434767Y161976D01*
X434715Y161975D01*
X434647Y161950D01*
X434577Y161935D01*
X434532Y161908D01*
X434484Y161890D01*
X434428Y161845D01*
X434366Y161809D01*
X434332Y161769D01*
X434292Y161737D01*
X434253Y161676D01*
X434206Y161622D01*
X434187Y161573D01*
X434159Y161530D01*
X434141Y161460D01*
X434114Y161394D01*
X434106Y161322D01*
X434098Y161291D01*
X434100Y161268D01*
X434096Y161227D01*
X434096Y145675D01*
X431120Y142699D01*
X408880Y142699D01*
X405904Y145675D01*
X405904Y147066D01*
X405901Y147086D01*
X405903Y147105D01*
X405881Y147207D01*
X405865Y147309D01*
X405855Y147326D01*
X405851Y147346D01*
X405798Y147435D01*
X405749Y147526D01*
X405735Y147540D01*
X405725Y147557D01*
X405646Y147624D01*
X405571Y147696D01*
X405553Y147704D01*
X405538Y147717D01*
X405442Y147756D01*
X405348Y147799D01*
X405328Y147801D01*
X405310Y147809D01*
X405143Y147827D01*
X398696Y147827D01*
X398606Y147813D01*
X398515Y147805D01*
X398485Y147793D01*
X398453Y147788D01*
X398372Y147745D01*
X398289Y147709D01*
X398256Y147683D01*
X398236Y147672D01*
X398214Y147649D01*
X398158Y147604D01*
X389776Y139222D01*
X389764Y139206D01*
X389748Y139194D01*
X389692Y139106D01*
X389632Y139023D01*
X389626Y139004D01*
X389615Y138987D01*
X389590Y138886D01*
X389560Y138787D01*
X389560Y138768D01*
X389555Y138748D01*
X389563Y138645D01*
X389566Y138542D01*
X389573Y138523D01*
X389574Y138503D01*
X389615Y138408D01*
X389651Y138311D01*
X389663Y138295D01*
X389671Y138277D01*
X389776Y138146D01*
X414490Y113431D01*
X414585Y113363D01*
X414679Y113293D01*
X414685Y113291D01*
X414690Y113287D01*
X414802Y113253D01*
X414913Y113217D01*
X414919Y113217D01*
X414925Y113215D01*
X415042Y113218D01*
X415159Y113219D01*
X415166Y113221D01*
X415171Y113221D01*
X415189Y113228D01*
X415320Y113266D01*
X416754Y113860D01*
X423246Y113860D01*
X429245Y111375D01*
X433836Y106784D01*
X436320Y100786D01*
X436320Y71814D01*
X433836Y65816D01*
X429245Y61225D01*
X423246Y58740D01*
X418349Y58740D01*
X418278Y58729D01*
X418206Y58727D01*
X418157Y58709D01*
X418106Y58701D01*
X418042Y58667D01*
X417975Y58642D01*
X417934Y58610D01*
X417888Y58585D01*
X417839Y58533D01*
X417783Y58489D01*
X417755Y58445D01*
X417719Y58407D01*
X417689Y58342D01*
X417650Y58282D01*
X417637Y58231D01*
X417615Y58184D01*
X417608Y58113D01*
X417590Y58043D01*
X417594Y57991D01*
X417588Y57940D01*
X417604Y57869D01*
X417609Y57798D01*
X417629Y57750D01*
X417641Y57699D01*
X417677Y57638D01*
X417705Y57572D01*
X417750Y57516D01*
X417767Y57488D01*
X417785Y57473D01*
X417810Y57441D01*
X423553Y51698D01*
X423553Y43702D01*
X417898Y38047D01*
X409902Y38047D01*
X404247Y43702D01*
X404247Y51698D01*
X409902Y57353D01*
X416277Y57353D01*
X416373Y57368D01*
X416470Y57378D01*
X416493Y57388D01*
X416519Y57392D01*
X416605Y57438D01*
X416694Y57478D01*
X416714Y57495D01*
X416737Y57508D01*
X416804Y57578D01*
X416875Y57644D01*
X416888Y57667D01*
X416906Y57686D01*
X416947Y57774D01*
X416994Y57860D01*
X416999Y57885D01*
X417010Y57909D01*
X417020Y58006D01*
X417038Y58102D01*
X417034Y58128D01*
X417037Y58153D01*
X417016Y58249D01*
X417002Y58345D01*
X416990Y58368D01*
X416984Y58394D01*
X416935Y58477D01*
X416890Y58564D01*
X416872Y58583D01*
X416858Y58605D01*
X416785Y58668D01*
X416715Y58736D01*
X416686Y58752D01*
X416671Y58765D01*
X416641Y58777D01*
X416568Y58817D01*
X410755Y61225D01*
X406164Y65816D01*
X403680Y71814D01*
X403680Y100786D01*
X404042Y101660D01*
X404069Y101774D01*
X404097Y101887D01*
X404097Y101894D01*
X404098Y101900D01*
X404087Y102016D01*
X404078Y102132D01*
X404076Y102138D01*
X404075Y102145D01*
X404027Y102252D01*
X403982Y102359D01*
X403977Y102365D01*
X403975Y102369D01*
X403962Y102383D01*
X403877Y102490D01*
X378998Y127368D01*
X378982Y127380D01*
X378970Y127396D01*
X378882Y127452D01*
X378799Y127512D01*
X378780Y127518D01*
X378763Y127529D01*
X378662Y127554D01*
X378563Y127584D01*
X378544Y127584D01*
X378524Y127589D01*
X378421Y127581D01*
X378318Y127578D01*
X378299Y127571D01*
X378279Y127570D01*
X378184Y127529D01*
X378087Y127493D01*
X378071Y127481D01*
X378053Y127473D01*
X377922Y127368D01*
X377189Y126635D01*
X374388Y125475D01*
X369182Y125475D01*
X369162Y125472D01*
X369143Y125474D01*
X369041Y125452D01*
X368939Y125436D01*
X368922Y125426D01*
X368902Y125422D01*
X368813Y125369D01*
X368722Y125320D01*
X368708Y125306D01*
X368691Y125296D01*
X368624Y125217D01*
X368552Y125142D01*
X368544Y125124D01*
X368531Y125109D01*
X368492Y125013D01*
X368449Y124919D01*
X368447Y124899D01*
X368439Y124881D01*
X368421Y124714D01*
X368421Y122605D01*
X365445Y119629D01*
X346155Y119629D01*
X343179Y122605D01*
X343179Y141895D01*
X346155Y144871D01*
X365445Y144871D01*
X368421Y141895D01*
X368421Y141478D01*
X368424Y141458D01*
X368422Y141439D01*
X368444Y141337D01*
X368460Y141235D01*
X368470Y141218D01*
X368474Y141198D01*
X368527Y141109D01*
X368576Y141018D01*
X368590Y141004D01*
X368600Y140987D01*
X368679Y140920D01*
X368754Y140848D01*
X368772Y140840D01*
X368787Y140827D01*
X368883Y140788D01*
X368977Y140745D01*
X368997Y140743D01*
X369015Y140735D01*
X369182Y140717D01*
X369400Y140717D01*
X369490Y140731D01*
X369581Y140739D01*
X369611Y140751D01*
X369643Y140756D01*
X369724Y140799D01*
X369807Y140835D01*
X369840Y140861D01*
X369860Y140872D01*
X369882Y140895D01*
X369938Y140940D01*
X371892Y142894D01*
X374250Y145251D01*
X374250Y145252D01*
X387746Y158747D01*
X387773Y158785D01*
X387807Y158816D01*
X387844Y158884D01*
X387890Y158947D01*
X387903Y158991D01*
X387925Y159031D01*
X387939Y159108D01*
X387962Y159182D01*
X387961Y159228D01*
X387969Y159273D01*
X387958Y159350D01*
X387956Y159428D01*
X387940Y159471D01*
X387933Y159517D01*
X387898Y159586D01*
X387871Y159659D01*
X387842Y159695D01*
X387822Y159736D01*
X387766Y159790D01*
X387717Y159851D01*
X387679Y159876D01*
X387646Y159908D01*
X387526Y159974D01*
X387510Y159984D01*
X387506Y159985D01*
X387499Y159989D01*
X385834Y160679D01*
X384176Y162336D01*
X384102Y162389D01*
X384033Y162449D01*
X384003Y162461D01*
X383977Y162480D01*
X383890Y162507D01*
X383805Y162541D01*
X383764Y162545D01*
X383742Y162552D01*
X383709Y162551D01*
X383638Y162559D01*
X343161Y162559D01*
X341352Y164368D01*
X341278Y164421D01*
X341209Y164481D01*
X341179Y164493D01*
X341152Y164512D01*
X341065Y164539D01*
X340981Y164573D01*
X340940Y164577D01*
X340917Y164584D01*
X340885Y164583D01*
X340814Y164591D01*
X329309Y164591D01*
X329289Y164588D01*
X329270Y164590D01*
X329168Y164568D01*
X329066Y164552D01*
X329049Y164542D01*
X329029Y164538D01*
X328940Y164485D01*
X328849Y164436D01*
X328835Y164422D01*
X328818Y164412D01*
X328751Y164333D01*
X328679Y164258D01*
X328671Y164240D01*
X328658Y164225D01*
X328619Y164129D01*
X328576Y164035D01*
X328574Y164015D01*
X328566Y163997D01*
X328548Y163830D01*
X328548Y157878D01*
X327357Y156687D01*
X307643Y156687D01*
X306452Y157878D01*
X306452Y175562D01*
X307643Y176753D01*
X314198Y176753D01*
X314218Y176756D01*
X314237Y176754D01*
X314339Y176776D01*
X314441Y176792D01*
X314458Y176802D01*
X314478Y176806D01*
X314567Y176859D01*
X314658Y176908D01*
X314672Y176922D01*
X314689Y176932D01*
X314756Y177011D01*
X314828Y177086D01*
X314836Y177104D01*
X314849Y177119D01*
X314888Y177215D01*
X314931Y177309D01*
X314933Y177329D01*
X314941Y177347D01*
X314959Y177514D01*
X314959Y187486D01*
X314956Y187506D01*
X314958Y187525D01*
X314936Y187627D01*
X314920Y187729D01*
X314910Y187746D01*
X314906Y187766D01*
X314853Y187855D01*
X314804Y187946D01*
X314790Y187960D01*
X314780Y187977D01*
X314701Y188044D01*
X314626Y188116D01*
X314608Y188124D01*
X314593Y188137D01*
X314497Y188176D01*
X314403Y188219D01*
X314383Y188221D01*
X314365Y188229D01*
X314198Y188247D01*
X307643Y188247D01*
X306452Y189438D01*
X306452Y207122D01*
X307643Y208313D01*
X327357Y208313D01*
X328548Y207122D01*
X328548Y189438D01*
X327357Y188247D01*
X321818Y188247D01*
X321798Y188244D01*
X321779Y188246D01*
X321677Y188224D01*
X321575Y188208D01*
X321558Y188198D01*
X321538Y188194D01*
X321449Y188141D01*
X321358Y188092D01*
X321344Y188078D01*
X321327Y188068D01*
X321260Y187989D01*
X321188Y187914D01*
X321180Y187896D01*
X321167Y187881D01*
X321128Y187785D01*
X321085Y187691D01*
X321083Y187671D01*
X321075Y187653D01*
X321057Y187486D01*
X321057Y177514D01*
X321060Y177494D01*
X321058Y177475D01*
X321080Y177373D01*
X321096Y177271D01*
X321106Y177254D01*
X321110Y177234D01*
X321163Y177145D01*
X321212Y177054D01*
X321226Y177040D01*
X321236Y177023D01*
X321315Y176956D01*
X321390Y176884D01*
X321408Y176876D01*
X321423Y176863D01*
X321519Y176824D01*
X321613Y176781D01*
X321633Y176779D01*
X321651Y176771D01*
X321818Y176753D01*
X327357Y176753D01*
X328548Y175562D01*
X328548Y171450D01*
X328551Y171430D01*
X328549Y171411D01*
X328571Y171309D01*
X328587Y171207D01*
X328597Y171190D01*
X328601Y171170D01*
X328654Y171081D01*
X328703Y170990D01*
X328717Y170976D01*
X328727Y170959D01*
X328806Y170892D01*
X328881Y170820D01*
X328899Y170812D01*
X328914Y170799D01*
X329010Y170760D01*
X329104Y170717D01*
X329124Y170715D01*
X329142Y170707D01*
X329309Y170689D01*
X343655Y170689D01*
X345464Y168880D01*
X345538Y168827D01*
X345607Y168767D01*
X345637Y168755D01*
X345664Y168736D01*
X345751Y168709D01*
X345835Y168675D01*
X345876Y168671D01*
X345899Y168664D01*
X345931Y168665D01*
X346002Y168657D01*
X383638Y168657D01*
X383728Y168671D01*
X383819Y168679D01*
X383849Y168691D01*
X383881Y168696D01*
X383962Y168739D01*
X384045Y168775D01*
X384078Y168801D01*
X384098Y168812D01*
X384120Y168835D01*
X384176Y168880D01*
X385834Y170537D01*
X387971Y171423D01*
X390285Y171423D01*
X392422Y170537D01*
X394057Y168902D01*
X394943Y166765D01*
X394943Y164451D01*
X394806Y164121D01*
X394796Y164077D01*
X394776Y164035D01*
X394768Y163958D01*
X394750Y163882D01*
X394754Y163836D01*
X394749Y163791D01*
X394766Y163714D01*
X394773Y163637D01*
X394792Y163595D01*
X394801Y163550D01*
X394841Y163483D01*
X394873Y163412D01*
X394904Y163378D01*
X394928Y163339D01*
X394987Y163288D01*
X395039Y163231D01*
X395079Y163209D01*
X395114Y163179D01*
X395187Y163150D01*
X395255Y163113D01*
X395300Y163104D01*
X395343Y163087D01*
X395478Y163072D01*
X395497Y163069D01*
X395502Y163070D01*
X395509Y163069D01*
X405143Y163069D01*
X405163Y163072D01*
X405182Y163070D01*
X405284Y163092D01*
X405386Y163108D01*
X405403Y163118D01*
X405423Y163122D01*
X405512Y163175D01*
X405603Y163224D01*
X405617Y163238D01*
X405634Y163248D01*
X405701Y163327D01*
X405773Y163402D01*
X405781Y163420D01*
X405794Y163435D01*
X405833Y163531D01*
X405876Y163625D01*
X405878Y163645D01*
X405886Y163663D01*
X405904Y163830D01*
X405904Y165896D01*
X405943Y165956D01*
X406003Y166040D01*
X406009Y166059D01*
X406020Y166076D01*
X406045Y166176D01*
X406076Y166275D01*
X406075Y166295D01*
X406080Y166314D01*
X406072Y166417D01*
X406069Y166521D01*
X406063Y166539D01*
X406061Y166559D01*
X406021Y166654D01*
X405985Y166752D01*
X405972Y166767D01*
X405965Y166786D01*
X405860Y166917D01*
X369800Y202976D01*
X369726Y203029D01*
X369657Y203089D01*
X369627Y203101D01*
X369600Y203120D01*
X369513Y203147D01*
X369429Y203181D01*
X369388Y203185D01*
X369365Y203192D01*
X369333Y203191D01*
X369262Y203199D01*
X344177Y203199D01*
X342168Y205208D01*
X329561Y217815D01*
X329545Y217827D01*
X329533Y217842D01*
X329445Y217898D01*
X329362Y217959D01*
X329343Y217964D01*
X329326Y217975D01*
X329225Y218001D01*
X329127Y218031D01*
X329107Y218030D01*
X329087Y218035D01*
X328984Y218027D01*
X328881Y218025D01*
X328862Y218018D01*
X328842Y218016D01*
X328747Y217976D01*
X328650Y217940D01*
X328634Y217928D01*
X328616Y217920D01*
X328485Y217815D01*
X327357Y216687D01*
X307643Y216687D01*
X306452Y217878D01*
X306452Y235562D01*
X307643Y236753D01*
X315214Y236753D01*
X315234Y236756D01*
X315253Y236754D01*
X315355Y236776D01*
X315457Y236792D01*
X315474Y236802D01*
X315494Y236806D01*
X315583Y236859D01*
X315674Y236908D01*
X315688Y236922D01*
X315705Y236932D01*
X315772Y237011D01*
X315844Y237086D01*
X315852Y237104D01*
X315865Y237119D01*
X315904Y237215D01*
X315947Y237309D01*
X315949Y237329D01*
X315957Y237347D01*
X315975Y237514D01*
X315975Y264706D01*
X315972Y264726D01*
X315974Y264745D01*
X315952Y264847D01*
X315936Y264949D01*
X315926Y264966D01*
X315922Y264986D01*
X315869Y265075D01*
X315820Y265166D01*
X315806Y265180D01*
X315796Y265197D01*
X315717Y265264D01*
X315642Y265336D01*
X315624Y265344D01*
X315609Y265357D01*
X315513Y265396D01*
X315419Y265439D01*
X315399Y265441D01*
X315381Y265449D01*
X315214Y265467D01*
X310658Y265467D01*
X309467Y266658D01*
X309467Y278342D01*
X310658Y279533D01*
X326342Y279533D01*
X327533Y278342D01*
X327533Y266658D01*
X326342Y265467D01*
X322834Y265467D01*
X322814Y265464D01*
X322795Y265466D01*
X322693Y265444D01*
X322591Y265428D01*
X322574Y265418D01*
X322554Y265414D01*
X322465Y265361D01*
X322374Y265312D01*
X322360Y265298D01*
X322343Y265288D01*
X322276Y265209D01*
X322204Y265134D01*
X322196Y265116D01*
X322183Y265101D01*
X322144Y265005D01*
X322101Y264911D01*
X322099Y264891D01*
X322091Y264873D01*
X322073Y264706D01*
X322073Y237514D01*
X322075Y237498D01*
X322074Y237483D01*
X322074Y237480D01*
X322074Y237475D01*
X322096Y237373D01*
X322112Y237271D01*
X322122Y237254D01*
X322126Y237234D01*
X322179Y237145D01*
X322228Y237054D01*
X322242Y237040D01*
X322252Y237023D01*
X322331Y236956D01*
X322406Y236884D01*
X322424Y236876D01*
X322439Y236863D01*
X322535Y236824D01*
X322629Y236781D01*
X322649Y236779D01*
X322667Y236771D01*
X322834Y236753D01*
X327357Y236753D01*
X328548Y235562D01*
X328548Y227767D01*
X328562Y227677D01*
X328570Y227586D01*
X328582Y227556D01*
X328587Y227524D01*
X328630Y227444D01*
X328666Y227360D01*
X328692Y227328D01*
X328703Y227307D01*
X328726Y227285D01*
X328771Y227229D01*
X346480Y209520D01*
X346554Y209467D01*
X346623Y209407D01*
X346653Y209395D01*
X346680Y209376D01*
X346767Y209349D01*
X346851Y209315D01*
X346892Y209311D01*
X346915Y209304D01*
X346947Y209305D01*
X347018Y209297D01*
X372103Y209297D01*
X407440Y173960D01*
X407514Y173907D01*
X407583Y173847D01*
X407613Y173835D01*
X407640Y173816D01*
X407727Y173789D01*
X407811Y173755D01*
X407852Y173751D01*
X407875Y173744D01*
X407907Y173745D01*
X407978Y173737D01*
X408756Y173737D01*
X408826Y173748D01*
X408898Y173750D01*
X408947Y173768D01*
X408998Y173776D01*
X409062Y173810D01*
X409129Y173835D01*
X409170Y173867D01*
X409216Y173892D01*
X409265Y173944D01*
X409321Y173988D01*
X409349Y174032D01*
X409385Y174070D01*
X409415Y174135D01*
X409454Y174195D01*
X409467Y174246D01*
X409489Y174293D01*
X409497Y174364D01*
X409514Y174434D01*
X409510Y174486D01*
X409516Y174537D01*
X409501Y174608D01*
X409495Y174679D01*
X409475Y174727D01*
X409464Y174778D01*
X409427Y174839D01*
X409399Y174905D01*
X409354Y174961D01*
X409338Y174989D01*
X409320Y175004D01*
X409294Y175036D01*
X408952Y175378D01*
X408952Y193062D01*
X410143Y194253D01*
X415290Y194253D01*
X415310Y194256D01*
X415329Y194254D01*
X415431Y194276D01*
X415533Y194292D01*
X415550Y194302D01*
X415570Y194306D01*
X415659Y194359D01*
X415750Y194408D01*
X415764Y194422D01*
X415781Y194432D01*
X415848Y194511D01*
X415920Y194586D01*
X415928Y194604D01*
X415941Y194619D01*
X415980Y194715D01*
X416023Y194809D01*
X416025Y194829D01*
X416033Y194847D01*
X416051Y195014D01*
X416051Y201030D01*
X436148Y221127D01*
X436201Y221201D01*
X436261Y221271D01*
X436273Y221301D01*
X436292Y221327D01*
X436319Y221414D01*
X436353Y221499D01*
X436357Y221540D01*
X436364Y221562D01*
X436363Y221594D01*
X436371Y221665D01*
X436371Y255855D01*
X436357Y255945D01*
X436349Y256036D01*
X436337Y256065D01*
X436332Y256097D01*
X436289Y256178D01*
X436253Y256262D01*
X436227Y256294D01*
X436216Y256315D01*
X436193Y256337D01*
X436148Y256393D01*
X421801Y270740D01*
X421727Y270793D01*
X421657Y270853D01*
X421627Y270865D01*
X421601Y270884D01*
X421514Y270911D01*
X421449Y270937D01*
X416363Y276023D01*
X416363Y283177D01*
X421423Y288237D01*
X428577Y288237D01*
X433637Y283177D01*
X433637Y276023D01*
X432083Y274469D01*
X432071Y274452D01*
X432056Y274440D01*
X431999Y274353D01*
X431939Y274269D01*
X431933Y274250D01*
X431923Y274233D01*
X431897Y274133D01*
X431867Y274034D01*
X431867Y274014D01*
X431863Y273995D01*
X431871Y273892D01*
X431873Y273788D01*
X431880Y273769D01*
X431882Y273749D01*
X431922Y273655D01*
X431958Y273557D01*
X431970Y273541D01*
X431978Y273523D01*
X432083Y273392D01*
X445517Y259958D01*
X445517Y217562D01*
X425420Y197465D01*
X425367Y197391D01*
X425307Y197321D01*
X425295Y197291D01*
X425276Y197265D01*
X425249Y197178D01*
X425215Y197093D01*
X425211Y197052D01*
X425204Y197030D01*
X425205Y196998D01*
X425197Y196927D01*
X425197Y195014D01*
X425200Y194994D01*
X425198Y194975D01*
X425220Y194873D01*
X425236Y194771D01*
X425246Y194754D01*
X425250Y194734D01*
X425303Y194645D01*
X425352Y194554D01*
X425366Y194540D01*
X425376Y194523D01*
X425455Y194456D01*
X425530Y194384D01*
X425548Y194376D01*
X425563Y194363D01*
X425659Y194324D01*
X425753Y194281D01*
X425773Y194279D01*
X425791Y194271D01*
X425958Y194253D01*
X429857Y194253D01*
X431048Y193062D01*
X431048Y175133D01*
X431045Y175121D01*
X431048Y175082D01*
X431048Y175063D01*
X431051Y175045D01*
X431053Y175019D01*
X431055Y174917D01*
X431062Y174897D01*
X431064Y174876D01*
X431087Y174820D01*
X431088Y174819D01*
X431104Y174782D01*
X431139Y174685D01*
X431152Y174669D01*
X431160Y174650D01*
X431265Y174519D01*
X433040Y172744D01*
X480569Y125215D01*
X480569Y54617D01*
X478760Y52808D01*
X478707Y52734D01*
X478647Y52665D01*
X478635Y52635D01*
X478616Y52608D01*
X478589Y52521D01*
X478555Y52437D01*
X478551Y52396D01*
X478544Y52373D01*
X478545Y52341D01*
X478537Y52270D01*
X478537Y43234D01*
X478551Y43144D01*
X478559Y43053D01*
X478571Y43023D01*
X478576Y42991D01*
X478619Y42911D01*
X478655Y42827D01*
X478681Y42795D01*
X478692Y42774D01*
X478715Y42752D01*
X478760Y42696D01*
X480569Y40887D01*
X480569Y33281D01*
X474508Y27220D01*
X474496Y27204D01*
X474480Y27191D01*
X474424Y27104D01*
X474364Y27020D01*
X474358Y27001D01*
X474347Y26984D01*
X474322Y26884D01*
X474292Y26785D01*
X474292Y26765D01*
X474287Y26746D01*
X474295Y26643D01*
X474298Y26539D01*
X474305Y26520D01*
X474306Y26501D01*
X474347Y26406D01*
X474353Y26390D01*
X474353Y18302D01*
X468781Y12730D01*
X468739Y12672D01*
X468690Y12620D01*
X468668Y12573D01*
X468638Y12531D01*
X468617Y12462D01*
X468586Y12397D01*
X468581Y12345D01*
X468565Y12295D01*
X468567Y12224D01*
X468559Y12153D01*
X468570Y12102D01*
X468572Y12050D01*
X468596Y11982D01*
X468612Y11912D01*
X468638Y11867D01*
X468656Y11819D01*
X468701Y11763D01*
X468738Y11701D01*
X468777Y11667D01*
X468810Y11627D01*
X468870Y11588D01*
X468925Y11541D01*
X468973Y11522D01*
X469017Y11494D01*
X469086Y11476D01*
X469153Y11449D01*
X469224Y11441D01*
X469255Y11433D01*
X469279Y11435D01*
X469320Y11431D01*
X485480Y11431D01*
X485551Y11442D01*
X485623Y11444D01*
X485672Y11462D01*
X485723Y11470D01*
X485787Y11504D01*
X485854Y11529D01*
X485895Y11561D01*
X485941Y11586D01*
X485990Y11638D01*
X486046Y11682D01*
X486074Y11726D01*
X486110Y11764D01*
X486140Y11829D01*
X486179Y11889D01*
X486192Y11940D01*
X486214Y11987D01*
X486221Y12058D01*
X486239Y12128D01*
X486235Y12180D01*
X486241Y12231D01*
X486225Y12302D01*
X486220Y12373D01*
X486200Y12421D01*
X486188Y12472D01*
X486152Y12533D01*
X486124Y12599D01*
X486079Y12655D01*
X486062Y12683D01*
X486044Y12698D01*
X486019Y12730D01*
X480447Y18302D01*
X480447Y26298D01*
X486102Y31953D01*
X494098Y31953D01*
X499753Y26298D01*
X499753Y18302D01*
X494181Y12730D01*
X494139Y12672D01*
X494090Y12620D01*
X494068Y12573D01*
X494038Y12531D01*
X494017Y12462D01*
X493986Y12397D01*
X493981Y12345D01*
X493965Y12295D01*
X493967Y12224D01*
X493959Y12153D01*
X493970Y12102D01*
X493972Y12050D01*
X493996Y11982D01*
X494012Y11912D01*
X494038Y11867D01*
X494056Y11819D01*
X494101Y11763D01*
X494138Y11701D01*
X494177Y11667D01*
X494210Y11627D01*
X494270Y11588D01*
X494325Y11541D01*
X494373Y11522D01*
X494417Y11494D01*
X494486Y11476D01*
X494553Y11449D01*
X494624Y11441D01*
X494655Y11433D01*
X494679Y11435D01*
X494720Y11431D01*
X510162Y11431D01*
X510233Y11442D01*
X510304Y11444D01*
X510353Y11462D01*
X510405Y11470D01*
X510468Y11504D01*
X510535Y11529D01*
X510576Y11561D01*
X510622Y11586D01*
X510672Y11638D01*
X510728Y11682D01*
X510756Y11726D01*
X510792Y11764D01*
X510822Y11829D01*
X510861Y11889D01*
X510873Y11940D01*
X510895Y11987D01*
X510903Y12058D01*
X510921Y12128D01*
X510917Y12180D01*
X510922Y12231D01*
X510907Y12302D01*
X510901Y12373D01*
X510881Y12421D01*
X510870Y12472D01*
X510833Y12533D01*
X510805Y12599D01*
X510760Y12655D01*
X510744Y12683D01*
X510726Y12698D01*
X510700Y12730D01*
X505339Y18091D01*
X505339Y20777D01*
X514738Y20777D01*
X514758Y20780D01*
X514777Y20778D01*
X514879Y20800D01*
X514981Y20817D01*
X514998Y20826D01*
X515018Y20830D01*
X515107Y20883D01*
X515198Y20932D01*
X515212Y20946D01*
X515229Y20956D01*
X515296Y21035D01*
X515367Y21110D01*
X515376Y21128D01*
X515389Y21143D01*
X515427Y21239D01*
X515471Y21333D01*
X515473Y21353D01*
X515481Y21371D01*
X515499Y21538D01*
X515499Y22301D01*
X515501Y22301D01*
X515501Y21538D01*
X515504Y21518D01*
X515502Y21499D01*
X515524Y21397D01*
X515541Y21295D01*
X515550Y21278D01*
X515554Y21258D01*
X515607Y21169D01*
X515656Y21078D01*
X515670Y21064D01*
X515680Y21047D01*
X515759Y20980D01*
X515834Y20909D01*
X515852Y20900D01*
X515867Y20887D01*
X515963Y20848D01*
X516057Y20805D01*
X516077Y20803D01*
X516095Y20795D01*
X516262Y20777D01*
X525661Y20777D01*
X525661Y18091D01*
X520300Y12730D01*
X520258Y12672D01*
X520208Y12620D01*
X520187Y12573D01*
X520156Y12531D01*
X520135Y12462D01*
X520105Y12397D01*
X520099Y12345D01*
X520084Y12295D01*
X520086Y12224D01*
X520078Y12153D01*
X520089Y12102D01*
X520090Y12050D01*
X520115Y11982D01*
X520130Y11912D01*
X520157Y11867D01*
X520175Y11819D01*
X520219Y11763D01*
X520256Y11701D01*
X520296Y11667D01*
X520328Y11627D01*
X520389Y11588D01*
X520443Y11541D01*
X520491Y11522D01*
X520535Y11494D01*
X520605Y11476D01*
X520671Y11449D01*
X520743Y11441D01*
X520774Y11433D01*
X520797Y11435D01*
X520838Y11431D01*
X536280Y11431D01*
X536351Y11442D01*
X536423Y11444D01*
X536472Y11462D01*
X536523Y11470D01*
X536587Y11504D01*
X536654Y11529D01*
X536695Y11561D01*
X536741Y11586D01*
X536790Y11638D01*
X536846Y11682D01*
X536874Y11726D01*
X536910Y11764D01*
X536940Y11829D01*
X536979Y11889D01*
X536992Y11940D01*
X537014Y11987D01*
X537021Y12058D01*
X537039Y12128D01*
X537035Y12180D01*
X537041Y12231D01*
X537025Y12302D01*
X537020Y12373D01*
X537000Y12421D01*
X536988Y12472D01*
X536952Y12533D01*
X536924Y12599D01*
X536879Y12655D01*
X536862Y12683D01*
X536844Y12698D01*
X536819Y12730D01*
X531247Y18302D01*
X531247Y26298D01*
X536902Y31953D01*
X544898Y31953D01*
X550553Y26298D01*
X550553Y18302D01*
X544981Y12730D01*
X544939Y12672D01*
X544890Y12620D01*
X544868Y12573D01*
X544838Y12531D01*
X544817Y12462D01*
X544786Y12397D01*
X544781Y12345D01*
X544765Y12295D01*
X544767Y12224D01*
X544759Y12153D01*
X544770Y12102D01*
X544772Y12050D01*
X544796Y11982D01*
X544812Y11912D01*
X544838Y11867D01*
X544856Y11819D01*
X544901Y11763D01*
X544938Y11701D01*
X544977Y11667D01*
X545010Y11627D01*
X545070Y11588D01*
X545125Y11541D01*
X545173Y11522D01*
X545217Y11494D01*
X545286Y11476D01*
X545353Y11449D01*
X545424Y11441D01*
X545455Y11433D01*
X545479Y11435D01*
X545520Y11431D01*
X561680Y11431D01*
X561751Y11442D01*
X561823Y11444D01*
X561872Y11462D01*
X561923Y11470D01*
X561987Y11504D01*
X562054Y11529D01*
X562095Y11561D01*
X562141Y11586D01*
X562190Y11638D01*
X562246Y11682D01*
X562274Y11726D01*
X562310Y11764D01*
X562340Y11829D01*
X562379Y11889D01*
X562392Y11940D01*
X562414Y11987D01*
X562421Y12058D01*
X562439Y12128D01*
X562435Y12180D01*
X562441Y12231D01*
X562425Y12302D01*
X562420Y12373D01*
X562400Y12421D01*
X562388Y12472D01*
X562352Y12533D01*
X562324Y12599D01*
X562279Y12655D01*
X562262Y12683D01*
X562244Y12698D01*
X562219Y12730D01*
X556647Y18302D01*
X556647Y26298D01*
X562302Y31953D01*
X570298Y31953D01*
X575953Y26298D01*
X575953Y18302D01*
X570381Y12730D01*
X570339Y12672D01*
X570290Y12620D01*
X570268Y12573D01*
X570238Y12531D01*
X570217Y12462D01*
X570186Y12397D01*
X570181Y12345D01*
X570165Y12295D01*
X570167Y12224D01*
X570159Y12153D01*
X570170Y12102D01*
X570172Y12050D01*
X570196Y11982D01*
X570212Y11912D01*
X570238Y11867D01*
X570256Y11819D01*
X570301Y11763D01*
X570338Y11701D01*
X570377Y11667D01*
X570410Y11627D01*
X570470Y11588D01*
X570525Y11541D01*
X570573Y11522D01*
X570617Y11494D01*
X570686Y11476D01*
X570753Y11449D01*
X570824Y11441D01*
X570855Y11433D01*
X570879Y11435D01*
X570920Y11431D01*
X605592Y11431D01*
X605689Y11446D01*
X605786Y11456D01*
X605809Y11466D01*
X605835Y11470D01*
X605921Y11516D01*
X606010Y11556D01*
X606030Y11573D01*
X606053Y11586D01*
X606120Y11656D01*
X606191Y11722D01*
X606204Y11745D01*
X606222Y11764D01*
X606263Y11852D01*
X606310Y11938D01*
X606315Y11963D01*
X606326Y11987D01*
X606336Y12084D01*
X606354Y12180D01*
X606350Y12206D01*
X606353Y12231D01*
X606332Y12327D01*
X606318Y12423D01*
X606306Y12446D01*
X606300Y12472D01*
X606251Y12555D01*
X606206Y12642D01*
X606188Y12661D01*
X606174Y12683D01*
X606100Y12746D01*
X606031Y12814D01*
X606002Y12830D01*
X605987Y12843D01*
X605957Y12855D01*
X605884Y12895D01*
X601456Y14729D01*
X594729Y21456D01*
X591089Y30244D01*
X591089Y39756D01*
X594729Y48544D01*
X601456Y55271D01*
X610244Y58911D01*
X619756Y58911D01*
X628544Y55271D01*
X635271Y48544D01*
X637105Y44116D01*
X637156Y44033D01*
X637202Y43947D01*
X637221Y43929D01*
X637234Y43907D01*
X637309Y43845D01*
X637380Y43778D01*
X637404Y43767D01*
X637424Y43750D01*
X637515Y43715D01*
X637603Y43674D01*
X637629Y43672D01*
X637653Y43662D01*
X637751Y43658D01*
X637847Y43647D01*
X637873Y43653D01*
X637899Y43652D01*
X637993Y43679D01*
X638088Y43700D01*
X638110Y43713D01*
X638135Y43720D01*
X638215Y43776D01*
X638299Y43826D01*
X638316Y43846D01*
X638337Y43861D01*
X638396Y43939D01*
X638459Y44013D01*
X638469Y44037D01*
X638484Y44058D01*
X638514Y44150D01*
X638551Y44241D01*
X638554Y44273D01*
X638560Y44292D01*
X638560Y44325D01*
X638569Y44408D01*
X638569Y255592D01*
X638554Y255689D01*
X638544Y255786D01*
X638534Y255809D01*
X638530Y255835D01*
X638484Y255921D01*
X638444Y256010D01*
X638427Y256030D01*
X638414Y256053D01*
X638344Y256120D01*
X638278Y256191D01*
X638255Y256204D01*
X638236Y256222D01*
X638148Y256263D01*
X638062Y256310D01*
X638037Y256315D01*
X638013Y256326D01*
X637916Y256336D01*
X637820Y256354D01*
X637794Y256350D01*
X637769Y256353D01*
X637673Y256332D01*
X637577Y256318D01*
X637554Y256306D01*
X637528Y256300D01*
X637445Y256251D01*
X637358Y256206D01*
X637339Y256188D01*
X637317Y256174D01*
X637254Y256100D01*
X637186Y256031D01*
X637170Y256002D01*
X637157Y255987D01*
X637145Y255957D01*
X637105Y255884D01*
X635271Y251456D01*
X628544Y244729D01*
X619756Y241089D01*
X610244Y241089D01*
X601456Y244729D01*
X594729Y251456D01*
X591089Y260244D01*
X591089Y269756D01*
X594729Y278544D01*
X601456Y285271D01*
X610244Y288911D01*
X619756Y288911D01*
X628544Y285271D01*
X635271Y278544D01*
X637105Y274116D01*
X637156Y274033D01*
X637202Y273947D01*
X637221Y273929D01*
X637234Y273907D01*
X637309Y273845D01*
X637380Y273778D01*
X637404Y273767D01*
X637424Y273750D01*
X637515Y273715D01*
X637603Y273674D01*
X637629Y273672D01*
X637653Y273662D01*
X637751Y273658D01*
X637847Y273647D01*
X637873Y273653D01*
X637899Y273652D01*
X637993Y273679D01*
X638088Y273700D01*
X638110Y273713D01*
X638135Y273720D01*
X638215Y273776D01*
X638299Y273826D01*
X638316Y273846D01*
X638337Y273861D01*
X638396Y273939D01*
X638459Y274013D01*
X638469Y274037D01*
X638484Y274058D01*
X638514Y274150D01*
X638551Y274241D01*
X638554Y274273D01*
X638560Y274292D01*
X638560Y274325D01*
X638569Y274408D01*
X638569Y357808D01*
X638567Y357824D01*
X638568Y357839D01*
X638568Y357842D01*
X638568Y357847D01*
X638546Y357949D01*
X638530Y358051D01*
X638520Y358068D01*
X638516Y358088D01*
X638463Y358177D01*
X638414Y358268D01*
X638400Y358282D01*
X638390Y358299D01*
X638311Y358366D01*
X638236Y358438D01*
X638218Y358446D01*
X638203Y358459D01*
X638107Y358498D01*
X638013Y358541D01*
X637993Y358543D01*
X637975Y358551D01*
X637808Y358569D01*
X12192Y358569D01*
X12172Y358566D01*
X12153Y358568D01*
X12051Y358546D01*
X11949Y358530D01*
X11932Y358520D01*
X11912Y358516D01*
X11823Y358463D01*
X11732Y358414D01*
X11718Y358400D01*
X11701Y358390D01*
X11634Y358311D01*
X11562Y358236D01*
X11554Y358218D01*
X11541Y358203D01*
X11502Y358107D01*
X11459Y358013D01*
X11457Y357993D01*
X11449Y357975D01*
X11431Y357808D01*
X11431Y339930D01*
X11442Y339859D01*
X11444Y339788D01*
X11462Y339739D01*
X11470Y339687D01*
X11504Y339624D01*
X11529Y339557D01*
X11561Y339516D01*
X11586Y339470D01*
X11638Y339421D01*
X11682Y339365D01*
X11726Y339336D01*
X11764Y339301D01*
X11829Y339270D01*
X11889Y339232D01*
X11940Y339219D01*
X11987Y339197D01*
X12058Y339189D01*
X12128Y339172D01*
X12180Y339176D01*
X12231Y339170D01*
X12302Y339185D01*
X12373Y339191D01*
X12421Y339211D01*
X12472Y339222D01*
X12533Y339259D01*
X12599Y339287D01*
X12655Y339332D01*
X12683Y339348D01*
X12698Y339366D01*
X12730Y339392D01*
X16039Y342701D01*
X26561Y342701D01*
X34001Y335261D01*
X34001Y324739D01*
X26561Y317299D01*
X16039Y317299D01*
X12730Y320608D01*
X12672Y320650D01*
X12620Y320699D01*
X12573Y320721D01*
X12531Y320752D01*
X12462Y320773D01*
X12397Y320803D01*
X12345Y320809D01*
X12295Y320824D01*
X12224Y320822D01*
X12153Y320830D01*
X12102Y320819D01*
X12050Y320818D01*
X11982Y320793D01*
X11912Y320778D01*
X11867Y320751D01*
X11819Y320733D01*
X11763Y320688D01*
X11701Y320652D01*
X11667Y320612D01*
X11627Y320580D01*
X11588Y320519D01*
X11541Y320465D01*
X11522Y320416D01*
X11494Y320373D01*
X11476Y320303D01*
X11449Y320237D01*
X11441Y320165D01*
X11433Y320134D01*
X11435Y320111D01*
X11431Y320070D01*
X11431Y274408D01*
X11446Y274311D01*
X11456Y274214D01*
X11466Y274191D01*
X11470Y274165D01*
X11516Y274079D01*
X11556Y273990D01*
X11573Y273970D01*
X11586Y273947D01*
X11656Y273880D01*
X11722Y273809D01*
X11745Y273796D01*
X11764Y273778D01*
X11852Y273737D01*
X11938Y273690D01*
X11963Y273685D01*
X11987Y273674D01*
X12084Y273664D01*
X12180Y273646D01*
X12206Y273650D01*
X12231Y273647D01*
X12327Y273668D01*
X12423Y273682D01*
X12446Y273694D01*
X12472Y273700D01*
X12555Y273749D01*
X12642Y273794D01*
X12661Y273812D01*
X12683Y273826D01*
X12746Y273900D01*
X12814Y273969D01*
X12830Y273998D01*
X12843Y274013D01*
X12855Y274043D01*
X12895Y274116D01*
X14729Y278544D01*
X21456Y285271D01*
X30244Y288911D01*
X39756Y288911D01*
X48544Y285271D01*
X55271Y278544D01*
X58911Y269756D01*
X58911Y260244D01*
X55271Y251456D01*
X48544Y244729D01*
X39756Y241089D01*
X30244Y241089D01*
X21456Y244729D01*
X14729Y251456D01*
X12895Y255884D01*
X12844Y255967D01*
X12798Y256053D01*
X12779Y256071D01*
X12766Y256093D01*
X12691Y256155D01*
X12620Y256222D01*
X12596Y256233D01*
X12576Y256250D01*
X12485Y256285D01*
X12397Y256326D01*
X12371Y256328D01*
X12347Y256338D01*
X12249Y256342D01*
X12153Y256353D01*
X12127Y256347D01*
X12101Y256348D01*
X12007Y256321D01*
X11912Y256300D01*
X11890Y256287D01*
X11865Y256280D01*
X11785Y256224D01*
X11701Y256174D01*
X11684Y256154D01*
X11663Y256139D01*
X11604Y256061D01*
X11541Y255987D01*
X11531Y255963D01*
X11516Y255942D01*
X11486Y255850D01*
X11449Y255759D01*
X11446Y255727D01*
X11440Y255708D01*
X11440Y255675D01*
X11431Y255592D01*
X11431Y44408D01*
X11446Y44311D01*
X11456Y44214D01*
X11466Y44191D01*
X11470Y44165D01*
X11516Y44079D01*
X11556Y43990D01*
X11573Y43970D01*
X11586Y43947D01*
X11656Y43880D01*
X11722Y43809D01*
X11745Y43796D01*
X11764Y43778D01*
X11852Y43737D01*
X11938Y43690D01*
X11963Y43685D01*
X11987Y43674D01*
X12084Y43664D01*
X12180Y43646D01*
X12206Y43650D01*
X12231Y43647D01*
X12327Y43668D01*
X12423Y43682D01*
X12446Y43694D01*
X12472Y43700D01*
X12555Y43749D01*
X12642Y43794D01*
X12661Y43812D01*
X12683Y43826D01*
X12746Y43900D01*
X12814Y43969D01*
X12830Y43998D01*
X12843Y44013D01*
X12855Y44043D01*
X12895Y44116D01*
X14729Y48544D01*
X21456Y55271D01*
X30244Y58911D01*
X39756Y58911D01*
X48544Y55271D01*
X55271Y48544D01*
X58911Y39756D01*
X58911Y30244D01*
X55271Y21456D01*
X48544Y14729D01*
X44116Y12895D01*
X44033Y12844D01*
X43947Y12798D01*
X43929Y12779D01*
X43907Y12766D01*
X43845Y12691D01*
X43778Y12620D01*
X43767Y12596D01*
X43750Y12576D01*
X43715Y12485D01*
X43674Y12397D01*
X43672Y12371D01*
X43662Y12347D01*
X43658Y12249D01*
X43647Y12153D01*
X43653Y12127D01*
X43652Y12101D01*
X43679Y12007D01*
X43700Y11912D01*
X43713Y11890D01*
X43720Y11865D01*
X43776Y11785D01*
X43826Y11701D01*
X43846Y11684D01*
X43861Y11663D01*
X43939Y11604D01*
X44013Y11541D01*
X44037Y11531D01*
X44058Y11516D01*
X44150Y11486D01*
X44241Y11449D01*
X44273Y11446D01*
X44292Y11440D01*
X44325Y11440D01*
X44408Y11431D01*
X79080Y11431D01*
X79151Y11442D01*
G37*
%LPC*%
G36*
X288658Y87967D02*
X288658Y87967D01*
X287467Y89158D01*
X287467Y100842D01*
X288658Y102033D01*
X292862Y102033D01*
X292882Y102036D01*
X292901Y102034D01*
X293003Y102056D01*
X293105Y102072D01*
X293122Y102082D01*
X293142Y102086D01*
X293231Y102139D01*
X293322Y102188D01*
X293336Y102202D01*
X293353Y102212D01*
X293420Y102291D01*
X293492Y102366D01*
X293500Y102384D01*
X293513Y102399D01*
X293552Y102495D01*
X293595Y102589D01*
X293597Y102609D01*
X293605Y102627D01*
X293623Y102794D01*
X293623Y239214D01*
X293609Y239304D01*
X293601Y239395D01*
X293589Y239425D01*
X293584Y239457D01*
X293541Y239537D01*
X293505Y239621D01*
X293479Y239653D01*
X293468Y239674D01*
X293445Y239696D01*
X293400Y239752D01*
X274319Y258833D01*
X274319Y312126D01*
X274316Y312145D01*
X274318Y312164D01*
X274318Y312165D01*
X274296Y312267D01*
X274280Y312369D01*
X274270Y312386D01*
X274266Y312406D01*
X274213Y312495D01*
X274164Y312586D01*
X274150Y312600D01*
X274140Y312617D01*
X274061Y312684D01*
X273986Y312756D01*
X273968Y312764D01*
X273953Y312777D01*
X273857Y312816D01*
X273763Y312859D01*
X273743Y312861D01*
X273725Y312869D01*
X273558Y312887D01*
X273496Y312887D01*
X269977Y314345D01*
X267285Y317037D01*
X265827Y320556D01*
X265827Y339444D01*
X267285Y342963D01*
X269977Y345655D01*
X273496Y347113D01*
X277304Y347113D01*
X280823Y345655D01*
X283515Y342963D01*
X284973Y339444D01*
X284973Y320556D01*
X283515Y317037D01*
X280788Y314310D01*
X280787Y314310D01*
X280687Y314250D01*
X280683Y314245D01*
X280678Y314242D01*
X280603Y314152D01*
X280527Y314063D01*
X280525Y314057D01*
X280521Y314052D01*
X280479Y313944D01*
X280435Y313835D01*
X280434Y313827D01*
X280433Y313822D01*
X280432Y313804D01*
X280417Y313668D01*
X280417Y304854D01*
X280428Y304783D01*
X280430Y304712D01*
X280448Y304663D01*
X280456Y304611D01*
X280490Y304548D01*
X280515Y304481D01*
X280547Y304440D01*
X280572Y304394D01*
X280624Y304345D01*
X280668Y304289D01*
X280712Y304260D01*
X280750Y304225D01*
X280815Y304194D01*
X280875Y304156D01*
X280926Y304143D01*
X280973Y304121D01*
X281044Y304113D01*
X281114Y304096D01*
X281166Y304100D01*
X281217Y304094D01*
X281288Y304109D01*
X281359Y304115D01*
X281407Y304135D01*
X281458Y304146D01*
X281519Y304183D01*
X281585Y304211D01*
X281641Y304256D01*
X281669Y304272D01*
X281684Y304290D01*
X281716Y304316D01*
X292384Y314984D01*
X292437Y315058D01*
X292497Y315127D01*
X292509Y315157D01*
X292528Y315184D01*
X292555Y315271D01*
X292589Y315355D01*
X292593Y315396D01*
X292600Y315419D01*
X292599Y315451D01*
X292607Y315522D01*
X292607Y316241D01*
X292629Y316264D01*
X292648Y316303D01*
X292679Y316345D01*
X292681Y316351D01*
X292684Y316356D01*
X292708Y316434D01*
X292733Y316487D01*
X292737Y316524D01*
X292755Y316579D01*
X292755Y316585D01*
X292757Y316591D01*
X292754Y316681D01*
X292760Y316731D01*
X292753Y316763D01*
X292753Y316825D01*
X292751Y316832D01*
X292750Y316837D01*
X292744Y316854D01*
X292706Y316986D01*
X291227Y320556D01*
X291227Y339444D01*
X292685Y342963D01*
X295377Y345655D01*
X298896Y347113D01*
X302704Y347113D01*
X306223Y345655D01*
X308915Y342963D01*
X310373Y339444D01*
X310373Y320556D01*
X308915Y317037D01*
X306223Y314345D01*
X302704Y312887D01*
X299226Y312887D01*
X299136Y312873D01*
X299045Y312865D01*
X299015Y312853D01*
X298983Y312848D01*
X298903Y312805D01*
X298819Y312769D01*
X298787Y312743D01*
X298766Y312732D01*
X298765Y312731D01*
X298744Y312709D01*
X298688Y312664D01*
X284704Y298680D01*
X284651Y298606D01*
X284591Y298537D01*
X284579Y298507D01*
X284560Y298480D01*
X284533Y298393D01*
X284499Y298309D01*
X284495Y298268D01*
X284488Y298245D01*
X284489Y298213D01*
X284481Y298142D01*
X284481Y269802D01*
X284495Y269712D01*
X284503Y269621D01*
X284515Y269591D01*
X284520Y269559D01*
X284563Y269479D01*
X284599Y269395D01*
X284625Y269363D01*
X284636Y269342D01*
X284659Y269320D01*
X284704Y269264D01*
X286168Y267800D01*
X286226Y267758D01*
X286278Y267709D01*
X286325Y267687D01*
X286367Y267656D01*
X286436Y267635D01*
X286501Y267605D01*
X286553Y267599D01*
X286603Y267584D01*
X286674Y267586D01*
X286745Y267578D01*
X286796Y267589D01*
X286848Y267590D01*
X286916Y267615D01*
X286986Y267630D01*
X287031Y267657D01*
X287079Y267675D01*
X287135Y267720D01*
X287197Y267756D01*
X287231Y267796D01*
X287271Y267828D01*
X287310Y267889D01*
X287357Y267943D01*
X287376Y267992D01*
X287404Y268035D01*
X287422Y268105D01*
X287449Y268171D01*
X287457Y268243D01*
X287465Y268274D01*
X287463Y268297D01*
X287467Y268338D01*
X287467Y268842D01*
X288658Y270033D01*
X304342Y270033D01*
X305533Y268842D01*
X305533Y257158D01*
X304342Y255967D01*
X288658Y255967D01*
X287467Y257158D01*
X287467Y259334D01*
X287464Y259354D01*
X287466Y259373D01*
X287444Y259475D01*
X287428Y259577D01*
X287418Y259594D01*
X287414Y259614D01*
X287361Y259703D01*
X287312Y259794D01*
X287298Y259808D01*
X287288Y259825D01*
X287209Y259892D01*
X287134Y259964D01*
X287116Y259972D01*
X287101Y259985D01*
X287005Y260024D01*
X286911Y260067D01*
X286891Y260069D01*
X286873Y260077D01*
X286706Y260095D01*
X285249Y260095D01*
X281716Y263628D01*
X281658Y263670D01*
X281606Y263719D01*
X281559Y263741D01*
X281517Y263772D01*
X281448Y263793D01*
X281383Y263823D01*
X281331Y263829D01*
X281281Y263844D01*
X281210Y263842D01*
X281139Y263850D01*
X281088Y263839D01*
X281036Y263838D01*
X280968Y263813D01*
X280898Y263798D01*
X280853Y263771D01*
X280805Y263753D01*
X280749Y263708D01*
X280687Y263672D01*
X280653Y263632D01*
X280613Y263600D01*
X280574Y263539D01*
X280527Y263485D01*
X280508Y263436D01*
X280480Y263393D01*
X280462Y263323D01*
X280435Y263257D01*
X280427Y263185D01*
X280419Y263154D01*
X280421Y263131D01*
X280417Y263090D01*
X280417Y261674D01*
X280431Y261584D01*
X280439Y261493D01*
X280451Y261463D01*
X280456Y261431D01*
X280499Y261351D01*
X280535Y261267D01*
X280561Y261235D01*
X280572Y261214D01*
X280595Y261192D01*
X280640Y261136D01*
X299721Y242055D01*
X299721Y102794D01*
X299724Y102774D01*
X299722Y102755D01*
X299744Y102653D01*
X299760Y102551D01*
X299770Y102534D01*
X299774Y102514D01*
X299827Y102425D01*
X299876Y102334D01*
X299890Y102320D01*
X299900Y102303D01*
X299979Y102236D01*
X300054Y102164D01*
X300072Y102156D01*
X300087Y102143D01*
X300183Y102104D01*
X300277Y102061D01*
X300297Y102059D01*
X300315Y102051D01*
X300482Y102033D01*
X304342Y102033D01*
X305533Y100842D01*
X305533Y89158D01*
X304342Y87967D01*
X288658Y87967D01*
G37*
%LPD*%
%LPC*%
G36*
X209722Y118171D02*
X209722Y118171D01*
X207936Y119957D01*
X207936Y138483D01*
X209722Y140269D01*
X210058Y140269D01*
X210078Y140272D01*
X210097Y140270D01*
X210199Y140292D01*
X210301Y140308D01*
X210318Y140318D01*
X210338Y140322D01*
X210427Y140375D01*
X210518Y140424D01*
X210532Y140438D01*
X210549Y140448D01*
X210616Y140527D01*
X210688Y140602D01*
X210696Y140620D01*
X210709Y140635D01*
X210746Y140728D01*
X210756Y140744D01*
X210760Y140758D01*
X210791Y140825D01*
X210793Y140845D01*
X210801Y140863D01*
X210812Y140964D01*
X210817Y140982D01*
X210815Y140996D01*
X210819Y141030D01*
X210819Y141047D01*
X210817Y141060D01*
X210818Y141069D01*
X210807Y141120D01*
X210805Y141137D01*
X210797Y141228D01*
X210785Y141257D01*
X210780Y141289D01*
X210737Y141370D01*
X210701Y141454D01*
X210675Y141486D01*
X210664Y141507D01*
X210641Y141529D01*
X210596Y141585D01*
X205739Y146442D01*
X205739Y149140D01*
X205736Y149160D01*
X205738Y149179D01*
X205716Y149281D01*
X205700Y149383D01*
X205690Y149400D01*
X205686Y149420D01*
X205633Y149509D01*
X205584Y149600D01*
X205570Y149614D01*
X205560Y149631D01*
X205481Y149698D01*
X205406Y149770D01*
X205388Y149778D01*
X205373Y149791D01*
X205277Y149830D01*
X205183Y149873D01*
X205163Y149875D01*
X205145Y149883D01*
X204978Y149901D01*
X198837Y149901D01*
X197051Y151687D01*
X197051Y160213D01*
X198600Y161762D01*
X198612Y161778D01*
X198627Y161790D01*
X198683Y161878D01*
X198744Y161961D01*
X198750Y161980D01*
X198760Y161997D01*
X198786Y162098D01*
X198816Y162197D01*
X198816Y162216D01*
X198820Y162236D01*
X198812Y162339D01*
X198810Y162442D01*
X198803Y162461D01*
X198801Y162481D01*
X198761Y162576D01*
X198725Y162673D01*
X198713Y162689D01*
X198705Y162707D01*
X198600Y162838D01*
X197051Y164387D01*
X197051Y172913D01*
X198837Y174699D01*
X213637Y174699D01*
X213727Y174713D01*
X213818Y174721D01*
X213847Y174733D01*
X213879Y174738D01*
X213960Y174781D01*
X214044Y174817D01*
X214076Y174843D01*
X214097Y174854D01*
X214119Y174877D01*
X214175Y174922D01*
X226852Y187599D01*
X226905Y187673D01*
X226965Y187743D01*
X226977Y187773D01*
X226996Y187799D01*
X227023Y187886D01*
X227057Y187971D01*
X227061Y188012D01*
X227068Y188034D01*
X227067Y188066D01*
X227075Y188137D01*
X227075Y199975D01*
X227061Y200065D01*
X227053Y200156D01*
X227041Y200185D01*
X227036Y200217D01*
X226993Y200298D01*
X226957Y200382D01*
X226931Y200414D01*
X226920Y200435D01*
X226897Y200457D01*
X226852Y200513D01*
X220979Y206386D01*
X220979Y208690D01*
X220976Y208710D01*
X220978Y208729D01*
X220956Y208831D01*
X220940Y208933D01*
X220930Y208950D01*
X220926Y208970D01*
X220873Y209059D01*
X220824Y209150D01*
X220810Y209164D01*
X220800Y209181D01*
X220721Y209248D01*
X220646Y209320D01*
X220628Y209328D01*
X220613Y209341D01*
X220517Y209380D01*
X220423Y209423D01*
X220403Y209425D01*
X220385Y209433D01*
X220218Y209451D01*
X217737Y209451D01*
X215951Y211237D01*
X215951Y228763D01*
X217737Y230549D01*
X233263Y230549D01*
X234821Y228991D01*
X234837Y228979D01*
X234850Y228963D01*
X234937Y228907D01*
X235021Y228847D01*
X235040Y228841D01*
X235056Y228830D01*
X235157Y228805D01*
X235256Y228775D01*
X235276Y228775D01*
X235295Y228770D01*
X235398Y228778D01*
X235502Y228781D01*
X235520Y228788D01*
X235540Y228790D01*
X235635Y228830D01*
X235733Y228866D01*
X235748Y228878D01*
X235767Y228886D01*
X235897Y228991D01*
X236440Y229533D01*
X237019Y229868D01*
X237666Y230041D01*
X242977Y230041D01*
X242977Y220762D01*
X242979Y220747D01*
X242978Y220735D01*
X242979Y220731D01*
X242978Y220723D01*
X243000Y220621D01*
X243017Y220519D01*
X243026Y220502D01*
X243030Y220482D01*
X243083Y220393D01*
X243132Y220302D01*
X243146Y220288D01*
X243156Y220271D01*
X243235Y220204D01*
X243310Y220133D01*
X243328Y220124D01*
X243343Y220111D01*
X243439Y220072D01*
X243533Y220029D01*
X243553Y220027D01*
X243571Y220019D01*
X243738Y220001D01*
X244501Y220001D01*
X244501Y219999D01*
X243738Y219999D01*
X243718Y219996D01*
X243699Y219998D01*
X243597Y219976D01*
X243495Y219959D01*
X243478Y219950D01*
X243458Y219946D01*
X243369Y219893D01*
X243278Y219844D01*
X243264Y219830D01*
X243247Y219820D01*
X243180Y219741D01*
X243109Y219666D01*
X243100Y219648D01*
X243087Y219633D01*
X243048Y219537D01*
X243005Y219443D01*
X243003Y219423D01*
X242995Y219405D01*
X242977Y219238D01*
X242977Y209959D01*
X237666Y209959D01*
X237019Y210132D01*
X236440Y210467D01*
X235897Y211009D01*
X235881Y211021D01*
X235869Y211037D01*
X235781Y211093D01*
X235698Y211153D01*
X235679Y211159D01*
X235662Y211170D01*
X235561Y211195D01*
X235463Y211225D01*
X235443Y211225D01*
X235423Y211230D01*
X235320Y211222D01*
X235217Y211219D01*
X235198Y211212D01*
X235178Y211210D01*
X235083Y211170D01*
X234986Y211134D01*
X234970Y211122D01*
X234952Y211114D01*
X234821Y211009D01*
X233263Y209451D01*
X232685Y209451D01*
X232615Y209440D01*
X232543Y209438D01*
X232494Y209420D01*
X232443Y209412D01*
X232379Y209378D01*
X232312Y209353D01*
X232271Y209321D01*
X232225Y209296D01*
X232176Y209244D01*
X232120Y209200D01*
X232092Y209156D01*
X232056Y209118D01*
X232026Y209053D01*
X231987Y208993D01*
X231974Y208942D01*
X231952Y208895D01*
X231944Y208824D01*
X231927Y208754D01*
X231931Y208702D01*
X231925Y208651D01*
X231940Y208580D01*
X231946Y208509D01*
X231966Y208461D01*
X231977Y208410D01*
X232014Y208349D01*
X232042Y208283D01*
X232087Y208227D01*
X232104Y208199D01*
X232121Y208184D01*
X232147Y208152D01*
X233319Y206980D01*
X236221Y204078D01*
X236221Y184034D01*
X223372Y171185D01*
X223319Y171111D01*
X223259Y171041D01*
X223247Y171011D01*
X223228Y170985D01*
X223201Y170898D01*
X223167Y170813D01*
X223163Y170772D01*
X223156Y170750D01*
X223157Y170718D01*
X223149Y170647D01*
X223149Y164387D01*
X221600Y162838D01*
X221588Y162822D01*
X221573Y162810D01*
X221517Y162722D01*
X221456Y162639D01*
X221450Y162620D01*
X221440Y162603D01*
X221414Y162502D01*
X221384Y162403D01*
X221384Y162384D01*
X221380Y162364D01*
X221388Y162261D01*
X221390Y162158D01*
X221397Y162139D01*
X221399Y162119D01*
X221439Y162024D01*
X221475Y161927D01*
X221487Y161911D01*
X221495Y161893D01*
X221600Y161762D01*
X223149Y160213D01*
X223149Y151687D01*
X221363Y149901D01*
X217051Y149901D01*
X216981Y149890D01*
X216909Y149888D01*
X216860Y149870D01*
X216809Y149862D01*
X216745Y149828D01*
X216678Y149803D01*
X216637Y149771D01*
X216591Y149746D01*
X216542Y149694D01*
X216486Y149650D01*
X216458Y149606D01*
X216422Y149568D01*
X216392Y149503D01*
X216353Y149443D01*
X216340Y149392D01*
X216318Y149345D01*
X216310Y149274D01*
X216293Y149204D01*
X216297Y149152D01*
X216291Y149101D01*
X216306Y149030D01*
X216312Y148959D01*
X216332Y148911D01*
X216343Y148860D01*
X216380Y148799D01*
X216408Y148733D01*
X216453Y148677D01*
X216470Y148649D01*
X216487Y148634D01*
X216513Y148602D01*
X217063Y148052D01*
X219965Y145150D01*
X219965Y141030D01*
X219968Y141010D01*
X219966Y140991D01*
X219988Y140889D01*
X220004Y140787D01*
X220014Y140770D01*
X220018Y140750D01*
X220071Y140661D01*
X220120Y140570D01*
X220134Y140556D01*
X220144Y140539D01*
X220223Y140472D01*
X220298Y140400D01*
X220316Y140392D01*
X220331Y140379D01*
X220427Y140340D01*
X220521Y140297D01*
X220541Y140295D01*
X220559Y140287D01*
X220726Y140269D01*
X230278Y140269D01*
X232064Y138483D01*
X232064Y134366D01*
X232067Y134346D01*
X232065Y134327D01*
X232087Y134225D01*
X232103Y134123D01*
X232113Y134106D01*
X232117Y134086D01*
X232170Y133997D01*
X232219Y133906D01*
X232233Y133892D01*
X232243Y133875D01*
X232322Y133808D01*
X232397Y133736D01*
X232415Y133728D01*
X232430Y133715D01*
X232526Y133676D01*
X232620Y133633D01*
X232640Y133631D01*
X232658Y133623D01*
X232825Y133605D01*
X237175Y133605D01*
X237195Y133608D01*
X237214Y133606D01*
X237316Y133628D01*
X237418Y133644D01*
X237435Y133654D01*
X237455Y133658D01*
X237544Y133711D01*
X237635Y133760D01*
X237649Y133774D01*
X237666Y133784D01*
X237733Y133863D01*
X237805Y133938D01*
X237813Y133956D01*
X237826Y133971D01*
X237865Y134067D01*
X237908Y134161D01*
X237910Y134181D01*
X237918Y134199D01*
X237936Y134366D01*
X237936Y138483D01*
X239722Y140269D01*
X260278Y140269D01*
X262064Y138483D01*
X262064Y119957D01*
X260278Y118171D01*
X239722Y118171D01*
X237936Y119957D01*
X237936Y123698D01*
X237933Y123718D01*
X237935Y123737D01*
X237913Y123839D01*
X237897Y123941D01*
X237887Y123958D01*
X237883Y123978D01*
X237830Y124067D01*
X237781Y124158D01*
X237767Y124172D01*
X237757Y124189D01*
X237678Y124256D01*
X237603Y124328D01*
X237585Y124336D01*
X237570Y124349D01*
X237474Y124388D01*
X237380Y124431D01*
X237360Y124433D01*
X237342Y124441D01*
X237175Y124459D01*
X232825Y124459D01*
X232805Y124456D01*
X232786Y124458D01*
X232684Y124436D01*
X232582Y124420D01*
X232565Y124410D01*
X232545Y124406D01*
X232456Y124353D01*
X232365Y124304D01*
X232351Y124290D01*
X232334Y124280D01*
X232267Y124201D01*
X232195Y124126D01*
X232187Y124108D01*
X232174Y124093D01*
X232135Y123997D01*
X232092Y123903D01*
X232090Y123883D01*
X232082Y123865D01*
X232064Y123698D01*
X232064Y119957D01*
X230278Y118171D01*
X209722Y118171D01*
G37*
%LPD*%
%LPC*%
G36*
X168355Y202179D02*
X168355Y202179D01*
X165379Y205155D01*
X165379Y207010D01*
X165376Y207030D01*
X165378Y207049D01*
X165356Y207151D01*
X165340Y207253D01*
X165330Y207270D01*
X165326Y207290D01*
X165273Y207379D01*
X165224Y207470D01*
X165210Y207484D01*
X165200Y207501D01*
X165121Y207568D01*
X165046Y207640D01*
X165028Y207648D01*
X165013Y207661D01*
X164917Y207700D01*
X164823Y207743D01*
X164803Y207745D01*
X164785Y207753D01*
X164618Y207771D01*
X160028Y207771D01*
X157227Y208931D01*
X150003Y216155D01*
X149343Y217750D01*
X149308Y217806D01*
X149283Y217866D01*
X149231Y217931D01*
X149213Y217959D01*
X149198Y217971D01*
X149178Y217997D01*
X148987Y218187D01*
X147827Y220988D01*
X147827Y221064D01*
X147813Y221154D01*
X147805Y221245D01*
X147793Y221275D01*
X147788Y221307D01*
X147745Y221388D01*
X147709Y221471D01*
X147683Y221504D01*
X147672Y221524D01*
X147649Y221546D01*
X147604Y221602D01*
X142354Y226852D01*
X142280Y226905D01*
X142211Y226965D01*
X142181Y226977D01*
X142155Y226996D01*
X142068Y227023D01*
X141983Y227057D01*
X141942Y227061D01*
X141920Y227068D01*
X141887Y227067D01*
X141816Y227075D01*
X101008Y227075D01*
X100918Y227061D01*
X100827Y227053D01*
X100797Y227041D01*
X100765Y227036D01*
X100684Y226993D01*
X100601Y226957D01*
X100568Y226931D01*
X100548Y226920D01*
X100526Y226897D01*
X100470Y226852D01*
X86908Y213290D01*
X86855Y213216D01*
X86795Y213147D01*
X86783Y213117D01*
X86764Y213091D01*
X86737Y213004D01*
X86703Y212919D01*
X86699Y212878D01*
X86692Y212856D01*
X86693Y212823D01*
X86685Y212752D01*
X86685Y212060D01*
X79840Y205215D01*
X70160Y205215D01*
X63315Y212060D01*
X63315Y221740D01*
X70160Y228585D01*
X79893Y228585D01*
X79905Y228576D01*
X79924Y228570D01*
X79941Y228559D01*
X80041Y228534D01*
X80140Y228503D01*
X80160Y228504D01*
X80179Y228499D01*
X80282Y228507D01*
X80386Y228510D01*
X80405Y228517D01*
X80425Y228518D01*
X80519Y228558D01*
X80617Y228594D01*
X80633Y228607D01*
X80651Y228614D01*
X80782Y228719D01*
X90968Y238906D01*
X93219Y241157D01*
X96020Y242317D01*
X146804Y242317D01*
X149605Y241157D01*
X161909Y228853D01*
X163069Y226052D01*
X163069Y225608D01*
X163079Y225543D01*
X163080Y225478D01*
X163103Y225398D01*
X163108Y225365D01*
X163118Y225348D01*
X163127Y225317D01*
X163585Y224210D01*
X163620Y224155D01*
X163645Y224094D01*
X163697Y224029D01*
X163715Y224001D01*
X163730Y223989D01*
X163750Y223963D01*
X164080Y223634D01*
X164138Y223592D01*
X164190Y223542D01*
X164237Y223520D01*
X164279Y223490D01*
X164348Y223469D01*
X164413Y223439D01*
X164465Y223433D01*
X164515Y223418D01*
X164586Y223420D01*
X164657Y223412D01*
X164708Y223423D01*
X164760Y223424D01*
X164828Y223449D01*
X164898Y223464D01*
X164943Y223491D01*
X164991Y223508D01*
X165047Y223553D01*
X165109Y223590D01*
X165143Y223630D01*
X165183Y223662D01*
X165222Y223722D01*
X165269Y223777D01*
X165288Y223825D01*
X165316Y223869D01*
X165334Y223938D01*
X165361Y224005D01*
X165369Y224076D01*
X165377Y224108D01*
X165375Y224131D01*
X165379Y224172D01*
X165379Y224445D01*
X168355Y227421D01*
X187645Y227421D01*
X190621Y224445D01*
X190621Y205155D01*
X187645Y202179D01*
X168355Y202179D01*
G37*
%LPD*%
%LPC*%
G36*
X168355Y164079D02*
X168355Y164079D01*
X165379Y167055D01*
X165379Y169418D01*
X165376Y169438D01*
X165378Y169457D01*
X165356Y169559D01*
X165340Y169661D01*
X165330Y169678D01*
X165326Y169698D01*
X165273Y169787D01*
X165224Y169878D01*
X165210Y169892D01*
X165200Y169909D01*
X165121Y169976D01*
X165046Y170048D01*
X165028Y170056D01*
X165013Y170069D01*
X164917Y170108D01*
X164823Y170151D01*
X164803Y170153D01*
X164785Y170161D01*
X164618Y170179D01*
X160028Y170179D01*
X157227Y171339D01*
X148987Y179579D01*
X147827Y182380D01*
X147827Y184488D01*
X147813Y184578D01*
X147805Y184669D01*
X147793Y184699D01*
X147788Y184731D01*
X147745Y184812D01*
X147709Y184895D01*
X147683Y184928D01*
X147672Y184948D01*
X147649Y184970D01*
X147604Y185026D01*
X134534Y198096D01*
X134460Y198149D01*
X134391Y198209D01*
X134361Y198221D01*
X134335Y198240D01*
X134248Y198267D01*
X134163Y198301D01*
X134122Y198305D01*
X134100Y198312D01*
X134067Y198311D01*
X133996Y198319D01*
X132299Y198319D01*
X127307Y200387D01*
X123487Y204207D01*
X121419Y209199D01*
X121419Y214601D01*
X123487Y219593D01*
X127307Y223413D01*
X132299Y225481D01*
X137701Y225481D01*
X142693Y223413D01*
X146513Y219593D01*
X148581Y214601D01*
X148581Y209199D01*
X147723Y207127D01*
X147696Y207014D01*
X147667Y206900D01*
X147668Y206894D01*
X147667Y206888D01*
X147678Y206771D01*
X147687Y206655D01*
X147689Y206649D01*
X147690Y206643D01*
X147737Y206535D01*
X147783Y206429D01*
X147788Y206423D01*
X147790Y206418D01*
X147802Y206404D01*
X147888Y206298D01*
X161909Y192277D01*
X163069Y189476D01*
X163069Y187368D01*
X163083Y187278D01*
X163091Y187187D01*
X163103Y187157D01*
X163108Y187125D01*
X163151Y187045D01*
X163187Y186961D01*
X163213Y186928D01*
X163224Y186908D01*
X163247Y186886D01*
X163292Y186830D01*
X164080Y186042D01*
X164138Y186000D01*
X164190Y185950D01*
X164237Y185928D01*
X164279Y185898D01*
X164348Y185877D01*
X164413Y185847D01*
X164465Y185841D01*
X164515Y185826D01*
X164586Y185828D01*
X164657Y185820D01*
X164708Y185831D01*
X164760Y185832D01*
X164828Y185857D01*
X164898Y185872D01*
X164943Y185899D01*
X164991Y185916D01*
X165047Y185961D01*
X165109Y185998D01*
X165143Y186038D01*
X165183Y186070D01*
X165222Y186130D01*
X165269Y186185D01*
X165288Y186233D01*
X165316Y186277D01*
X165318Y186283D01*
X168355Y189321D01*
X187648Y189321D01*
X187652Y189318D01*
X187664Y189302D01*
X187751Y189246D01*
X187835Y189186D01*
X187854Y189180D01*
X187871Y189169D01*
X187971Y189144D01*
X188070Y189114D01*
X188090Y189114D01*
X188110Y189109D01*
X188213Y189117D01*
X188316Y189120D01*
X188335Y189127D01*
X188355Y189128D01*
X188450Y189169D01*
X188547Y189204D01*
X188563Y189217D01*
X188581Y189225D01*
X188712Y189330D01*
X194796Y195414D01*
X194849Y195488D01*
X194909Y195557D01*
X194921Y195587D01*
X194940Y195613D01*
X194967Y195700D01*
X195001Y195785D01*
X195005Y195826D01*
X195012Y195848D01*
X195011Y195881D01*
X195019Y195952D01*
X195019Y199155D01*
X197995Y202131D01*
X222205Y202131D01*
X225181Y199155D01*
X225181Y188945D01*
X222205Y185969D01*
X207222Y185969D01*
X207132Y185955D01*
X207041Y185947D01*
X207011Y185935D01*
X206979Y185930D01*
X206898Y185887D01*
X206815Y185851D01*
X206782Y185825D01*
X206762Y185814D01*
X206740Y185791D01*
X206684Y185746D01*
X193293Y172355D01*
X191091Y171443D01*
X190991Y171382D01*
X190891Y171322D01*
X190887Y171317D01*
X190882Y171314D01*
X190807Y171224D01*
X190731Y171135D01*
X190729Y171129D01*
X190725Y171124D01*
X190683Y171016D01*
X190639Y170907D01*
X190638Y170899D01*
X190637Y170895D01*
X190636Y170876D01*
X190621Y170740D01*
X190621Y167055D01*
X187645Y164079D01*
X168355Y164079D01*
G37*
%LPD*%
%LPC*%
G36*
X196690Y309839D02*
X196690Y309839D01*
X192051Y311761D01*
X188501Y315311D01*
X186579Y319950D01*
X186579Y323080D01*
X186568Y323151D01*
X186566Y323222D01*
X186548Y323271D01*
X186540Y323323D01*
X186506Y323386D01*
X186481Y323453D01*
X186449Y323494D01*
X186424Y323540D01*
X186372Y323589D01*
X186328Y323645D01*
X186284Y323674D01*
X186246Y323709D01*
X186181Y323740D01*
X186121Y323778D01*
X186070Y323791D01*
X186023Y323813D01*
X185952Y323821D01*
X185882Y323838D01*
X185830Y323834D01*
X185779Y323840D01*
X185708Y323825D01*
X185637Y323819D01*
X185589Y323799D01*
X185538Y323788D01*
X185477Y323751D01*
X185411Y323723D01*
X185355Y323678D01*
X185327Y323662D01*
X185312Y323644D01*
X185280Y323618D01*
X178961Y317299D01*
X168439Y317299D01*
X160999Y324739D01*
X160999Y335261D01*
X168439Y342701D01*
X178961Y342701D01*
X185280Y336382D01*
X185338Y336340D01*
X185390Y336291D01*
X185437Y336269D01*
X185479Y336238D01*
X185548Y336217D01*
X185613Y336187D01*
X185665Y336181D01*
X185715Y336166D01*
X185786Y336168D01*
X185857Y336160D01*
X185908Y336171D01*
X185960Y336172D01*
X186028Y336197D01*
X186098Y336212D01*
X186143Y336239D01*
X186191Y336257D01*
X186247Y336302D01*
X186309Y336338D01*
X186343Y336378D01*
X186383Y336410D01*
X186422Y336471D01*
X186469Y336525D01*
X186488Y336574D01*
X186516Y336617D01*
X186534Y336687D01*
X186561Y336753D01*
X186569Y336825D01*
X186577Y336856D01*
X186575Y336879D01*
X186579Y336920D01*
X186579Y340050D01*
X188501Y344689D01*
X192051Y348239D01*
X196690Y350161D01*
X201710Y350161D01*
X206349Y348239D01*
X209899Y344689D01*
X211821Y340050D01*
X211821Y319950D01*
X209899Y315311D01*
X206349Y311761D01*
X201710Y309839D01*
X196690Y309839D01*
G37*
%LPD*%
%LPC*%
G36*
X209722Y89731D02*
X209722Y89731D01*
X207936Y91517D01*
X207936Y95250D01*
X207933Y95270D01*
X207935Y95289D01*
X207913Y95391D01*
X207897Y95493D01*
X207887Y95510D01*
X207883Y95530D01*
X207830Y95619D01*
X207781Y95710D01*
X207767Y95724D01*
X207757Y95741D01*
X207678Y95808D01*
X207603Y95880D01*
X207585Y95888D01*
X207570Y95901D01*
X207474Y95940D01*
X207380Y95983D01*
X207360Y95985D01*
X207342Y95993D01*
X207175Y96011D01*
X189350Y96011D01*
X189330Y96008D01*
X189311Y96010D01*
X189209Y95988D01*
X189107Y95972D01*
X189090Y95962D01*
X189070Y95958D01*
X188981Y95905D01*
X188890Y95856D01*
X188876Y95842D01*
X188859Y95832D01*
X188792Y95753D01*
X188720Y95678D01*
X188712Y95660D01*
X188699Y95645D01*
X188660Y95549D01*
X188617Y95455D01*
X188615Y95435D01*
X188607Y95417D01*
X188589Y95250D01*
X188589Y91697D01*
X186803Y89911D01*
X169197Y89911D01*
X167411Y91697D01*
X167411Y109303D01*
X169197Y111089D01*
X186803Y111089D01*
X188589Y109303D01*
X188589Y105918D01*
X188592Y105898D01*
X188590Y105879D01*
X188612Y105777D01*
X188628Y105675D01*
X188638Y105658D01*
X188642Y105638D01*
X188695Y105549D01*
X188744Y105458D01*
X188758Y105444D01*
X188768Y105427D01*
X188847Y105360D01*
X188922Y105288D01*
X188940Y105280D01*
X188955Y105267D01*
X189051Y105228D01*
X189145Y105185D01*
X189165Y105183D01*
X189183Y105175D01*
X189350Y105157D01*
X207175Y105157D01*
X207195Y105160D01*
X207214Y105158D01*
X207316Y105180D01*
X207418Y105196D01*
X207435Y105206D01*
X207455Y105210D01*
X207544Y105263D01*
X207635Y105312D01*
X207649Y105326D01*
X207666Y105336D01*
X207733Y105415D01*
X207805Y105490D01*
X207813Y105508D01*
X207826Y105523D01*
X207865Y105619D01*
X207908Y105713D01*
X207910Y105733D01*
X207918Y105751D01*
X207936Y105918D01*
X207936Y110043D01*
X209722Y111829D01*
X230278Y111829D01*
X232064Y110043D01*
X232064Y91517D01*
X230278Y89731D01*
X209722Y89731D01*
G37*
%LPD*%
%LPC*%
G36*
X310658Y97467D02*
X310658Y97467D01*
X309467Y98658D01*
X309467Y110342D01*
X310658Y111533D01*
X313368Y111533D01*
X313414Y111540D01*
X313460Y111538D01*
X313534Y111560D01*
X313611Y111572D01*
X313652Y111594D01*
X313696Y111607D01*
X313760Y111651D01*
X313829Y111688D01*
X313860Y111721D01*
X313898Y111747D01*
X313944Y111810D01*
X313998Y111866D01*
X314017Y111908D01*
X314045Y111944D01*
X314069Y112018D01*
X314102Y112089D01*
X314107Y112135D01*
X314121Y112178D01*
X314120Y112256D01*
X314129Y112333D01*
X314119Y112378D01*
X314118Y112424D01*
X314080Y112556D01*
X314076Y112574D01*
X314074Y112578D01*
X314072Y112585D01*
X313209Y114667D01*
X313209Y116981D01*
X314095Y119118D01*
X315752Y120776D01*
X315805Y120850D01*
X315865Y120919D01*
X315877Y120949D01*
X315896Y120975D01*
X315923Y121062D01*
X315957Y121147D01*
X315961Y121188D01*
X315968Y121210D01*
X315967Y121243D01*
X315975Y121314D01*
X315975Y127486D01*
X315972Y127506D01*
X315974Y127525D01*
X315952Y127627D01*
X315936Y127729D01*
X315926Y127746D01*
X315922Y127766D01*
X315869Y127855D01*
X315820Y127946D01*
X315806Y127960D01*
X315796Y127977D01*
X315717Y128044D01*
X315642Y128116D01*
X315624Y128124D01*
X315609Y128137D01*
X315513Y128176D01*
X315419Y128219D01*
X315399Y128221D01*
X315381Y128229D01*
X315214Y128247D01*
X307643Y128247D01*
X306452Y129438D01*
X306452Y147122D01*
X307643Y148313D01*
X327357Y148313D01*
X328548Y147122D01*
X328548Y129438D01*
X327357Y128247D01*
X322834Y128247D01*
X322814Y128244D01*
X322795Y128246D01*
X322693Y128224D01*
X322591Y128208D01*
X322574Y128198D01*
X322554Y128194D01*
X322465Y128141D01*
X322374Y128092D01*
X322360Y128078D01*
X322343Y128068D01*
X322276Y127989D01*
X322204Y127914D01*
X322196Y127896D01*
X322183Y127881D01*
X322144Y127785D01*
X322101Y127691D01*
X322099Y127671D01*
X322091Y127653D01*
X322073Y127486D01*
X322073Y121314D01*
X322087Y121224D01*
X322095Y121133D01*
X322107Y121103D01*
X322112Y121071D01*
X322155Y120990D01*
X322191Y120907D01*
X322217Y120874D01*
X322228Y120854D01*
X322251Y120832D01*
X322296Y120776D01*
X323953Y119118D01*
X324839Y116981D01*
X324839Y114667D01*
X323976Y112585D01*
X323966Y112541D01*
X323946Y112499D01*
X323938Y112422D01*
X323920Y112346D01*
X323924Y112300D01*
X323919Y112255D01*
X323936Y112178D01*
X323943Y112101D01*
X323962Y112059D01*
X323972Y112014D01*
X324012Y111947D01*
X324043Y111876D01*
X324074Y111842D01*
X324098Y111803D01*
X324157Y111752D01*
X324210Y111695D01*
X324250Y111673D01*
X324285Y111643D01*
X324357Y111614D01*
X324425Y111577D01*
X324470Y111568D01*
X324513Y111551D01*
X324649Y111536D01*
X324667Y111533D01*
X324672Y111534D01*
X324680Y111533D01*
X326342Y111533D01*
X327533Y110342D01*
X327533Y98658D01*
X326342Y97467D01*
X310658Y97467D01*
G37*
%LPD*%
%LPC*%
G36*
X346155Y170429D02*
X346155Y170429D01*
X343179Y173405D01*
X343179Y192695D01*
X346155Y195671D01*
X365445Y195671D01*
X368421Y192695D01*
X368421Y173405D01*
X365445Y170429D01*
X346155Y170429D01*
G37*
%LPD*%
%LPC*%
G36*
X132299Y274519D02*
X132299Y274519D01*
X127307Y276587D01*
X123487Y280407D01*
X121419Y285399D01*
X121419Y290801D01*
X123487Y295793D01*
X127307Y299613D01*
X132299Y301681D01*
X137701Y301681D01*
X142693Y299613D01*
X146513Y295793D01*
X148581Y290801D01*
X148581Y285399D01*
X146513Y280407D01*
X142693Y276587D01*
X137701Y274519D01*
X132299Y274519D01*
G37*
%LPD*%
%LPC*%
G36*
X222696Y312887D02*
X222696Y312887D01*
X219177Y314345D01*
X216485Y317037D01*
X215027Y320556D01*
X215027Y339444D01*
X216485Y342963D01*
X219177Y345655D01*
X222696Y347113D01*
X226504Y347113D01*
X230023Y345655D01*
X232715Y342963D01*
X234173Y339444D01*
X234173Y320556D01*
X232715Y317037D01*
X230023Y314345D01*
X226504Y312887D01*
X222696Y312887D01*
G37*
%LPD*%
%LPC*%
G36*
X362575Y330307D02*
X362575Y330307D01*
X358093Y332164D01*
X354664Y335593D01*
X352807Y340075D01*
X352807Y344925D01*
X354664Y349407D01*
X358093Y352836D01*
X362575Y354693D01*
X367425Y354693D01*
X371907Y352836D01*
X375336Y349407D01*
X377193Y344925D01*
X377193Y340075D01*
X375336Y335593D01*
X371907Y332164D01*
X367425Y330307D01*
X362575Y330307D01*
G37*
%LPD*%
%LPC*%
G36*
X362575Y280307D02*
X362575Y280307D01*
X358093Y282164D01*
X354664Y285593D01*
X352807Y290075D01*
X352807Y294925D01*
X354664Y299407D01*
X358093Y302836D01*
X362575Y304693D01*
X367425Y304693D01*
X371907Y302836D01*
X375336Y299407D01*
X377193Y294925D01*
X377193Y290075D01*
X375336Y285593D01*
X371907Y282164D01*
X367425Y280307D01*
X362575Y280307D01*
G37*
%LPD*%
%LPC*%
G36*
X42260Y175815D02*
X42260Y175815D01*
X35415Y182660D01*
X35415Y192340D01*
X42260Y199185D01*
X51940Y199185D01*
X58785Y192340D01*
X58785Y182660D01*
X51940Y175815D01*
X42260Y175815D01*
G37*
%LPD*%
%LPC*%
G36*
X93060Y175815D02*
X93060Y175815D01*
X86215Y182660D01*
X86215Y192340D01*
X93060Y199185D01*
X102740Y199185D01*
X109585Y192340D01*
X109585Y182660D01*
X102740Y175815D01*
X93060Y175815D01*
G37*
%LPD*%
%LPC*%
G36*
X70160Y281415D02*
X70160Y281415D01*
X63315Y288260D01*
X63315Y297940D01*
X70160Y304785D01*
X79840Y304785D01*
X86685Y297940D01*
X86685Y288260D01*
X79840Y281415D01*
X70160Y281415D01*
G37*
%LPD*%
%LPC*%
G36*
X174760Y248315D02*
X174760Y248315D01*
X167915Y255160D01*
X167915Y264840D01*
X174760Y271685D01*
X184440Y271685D01*
X191285Y264840D01*
X191285Y255160D01*
X184440Y248315D01*
X174760Y248315D01*
G37*
%LPD*%
%LPC*%
G36*
X225560Y248315D02*
X225560Y248315D01*
X218715Y255160D01*
X218715Y264840D01*
X225560Y271685D01*
X235240Y271685D01*
X242085Y264840D01*
X242085Y255160D01*
X235240Y248315D01*
X225560Y248315D01*
G37*
%LPD*%
%LPC*%
G36*
X44776Y103315D02*
X44776Y103315D01*
X40481Y105094D01*
X37194Y108381D01*
X35415Y112676D01*
X35415Y117324D01*
X37194Y121619D01*
X40481Y124906D01*
X44776Y126685D01*
X49424Y126685D01*
X53719Y124906D01*
X57006Y121619D01*
X58785Y117324D01*
X58785Y112676D01*
X57006Y108381D01*
X53719Y105094D01*
X49424Y103315D01*
X44776Y103315D01*
G37*
%LPD*%
%LPC*%
G36*
X347418Y84577D02*
X347418Y84577D01*
X346227Y85768D01*
X346227Y102532D01*
X347418Y103723D01*
X364182Y103723D01*
X365373Y102532D01*
X365373Y85768D01*
X364182Y84577D01*
X347418Y84577D01*
G37*
%LPD*%
%LPC*%
G36*
X347418Y211577D02*
X347418Y211577D01*
X346227Y212768D01*
X346227Y229532D01*
X347418Y230723D01*
X364182Y230723D01*
X365373Y229532D01*
X365373Y212768D01*
X364182Y211577D01*
X347418Y211577D01*
G37*
%LPD*%
%LPC*%
G36*
X130502Y38047D02*
X130502Y38047D01*
X124847Y43702D01*
X124847Y51698D01*
X130502Y57353D01*
X138498Y57353D01*
X144153Y51698D01*
X144153Y43702D01*
X138498Y38047D01*
X130502Y38047D01*
G37*
%LPD*%
%LPC*%
G36*
X155902Y38047D02*
X155902Y38047D01*
X150247Y43702D01*
X150247Y51698D01*
X155902Y57353D01*
X163898Y57353D01*
X169553Y51698D01*
X169553Y43702D01*
X163898Y38047D01*
X155902Y38047D01*
G37*
%LPD*%
%LPC*%
G36*
X181302Y38047D02*
X181302Y38047D01*
X175647Y43702D01*
X175647Y51698D01*
X181302Y57353D01*
X189298Y57353D01*
X194953Y51698D01*
X194953Y43702D01*
X189298Y38047D01*
X181302Y38047D01*
G37*
%LPD*%
%LPC*%
G36*
X206702Y38047D02*
X206702Y38047D01*
X201047Y43702D01*
X201047Y51698D01*
X206702Y57353D01*
X214698Y57353D01*
X220353Y51698D01*
X220353Y43702D01*
X214698Y38047D01*
X206702Y38047D01*
G37*
%LPD*%
%LPC*%
G36*
X232102Y38047D02*
X232102Y38047D01*
X226447Y43702D01*
X226447Y51698D01*
X232102Y57353D01*
X240098Y57353D01*
X245753Y51698D01*
X245753Y43702D01*
X240098Y38047D01*
X232102Y38047D01*
G37*
%LPD*%
%LPC*%
G36*
X308302Y38047D02*
X308302Y38047D01*
X302647Y43702D01*
X302647Y51698D01*
X308302Y57353D01*
X316298Y57353D01*
X321953Y51698D01*
X321953Y43702D01*
X316298Y38047D01*
X308302Y38047D01*
G37*
%LPD*%
%LPC*%
G36*
X282902Y38047D02*
X282902Y38047D01*
X277247Y43702D01*
X277247Y51698D01*
X282902Y57353D01*
X290898Y57353D01*
X296553Y51698D01*
X296553Y43702D01*
X290898Y38047D01*
X282902Y38047D01*
G37*
%LPD*%
%LPC*%
G36*
X333702Y38047D02*
X333702Y38047D01*
X328047Y43702D01*
X328047Y51698D01*
X333702Y57353D01*
X341698Y57353D01*
X347353Y51698D01*
X347353Y43702D01*
X341698Y38047D01*
X333702Y38047D01*
G37*
%LPD*%
%LPC*%
G36*
X359102Y38047D02*
X359102Y38047D01*
X353447Y43702D01*
X353447Y51698D01*
X359102Y57353D01*
X367098Y57353D01*
X372753Y51698D01*
X372753Y43702D01*
X367098Y38047D01*
X359102Y38047D01*
G37*
%LPD*%
%LPC*%
G36*
X384502Y38047D02*
X384502Y38047D01*
X378847Y43702D01*
X378847Y51698D01*
X384502Y57353D01*
X392498Y57353D01*
X398153Y51698D01*
X398153Y43702D01*
X392498Y38047D01*
X384502Y38047D01*
G37*
%LPD*%
%LPC*%
G36*
X435302Y38047D02*
X435302Y38047D01*
X429647Y43702D01*
X429647Y51698D01*
X435302Y57353D01*
X443298Y57353D01*
X448953Y51698D01*
X448953Y43702D01*
X443298Y38047D01*
X435302Y38047D01*
G37*
%LPD*%
%LPC*%
G36*
X511502Y38047D02*
X511502Y38047D01*
X505847Y43702D01*
X505847Y51698D01*
X511502Y57353D01*
X519498Y57353D01*
X525153Y51698D01*
X525153Y43702D01*
X519498Y38047D01*
X511502Y38047D01*
G37*
%LPD*%
%LPC*%
G36*
X536902Y38047D02*
X536902Y38047D01*
X531247Y43702D01*
X531247Y51698D01*
X536902Y57353D01*
X544898Y57353D01*
X550553Y51698D01*
X550553Y43702D01*
X544898Y38047D01*
X536902Y38047D01*
G37*
%LPD*%
%LPC*%
G36*
X562302Y38047D02*
X562302Y38047D01*
X556647Y43702D01*
X556647Y51698D01*
X562302Y57353D01*
X570298Y57353D01*
X575953Y51698D01*
X575953Y43702D01*
X570298Y38047D01*
X562302Y38047D01*
G37*
%LPD*%
%LPC*%
G36*
X486102Y38047D02*
X486102Y38047D01*
X480447Y43702D01*
X480447Y51698D01*
X486102Y57353D01*
X494098Y57353D01*
X499753Y51698D01*
X499753Y43702D01*
X494098Y38047D01*
X486102Y38047D01*
G37*
%LPD*%
%LPC*%
G36*
X105102Y38047D02*
X105102Y38047D01*
X99447Y43702D01*
X99447Y51698D01*
X105102Y57353D01*
X113098Y57353D01*
X118753Y51698D01*
X118753Y43702D01*
X113098Y38047D01*
X105102Y38047D01*
G37*
%LPD*%
%LPC*%
G36*
X421523Y240223D02*
X421523Y240223D01*
X421523Y263650D01*
X423227Y263380D01*
X425290Y262710D01*
X427222Y261725D01*
X428977Y260450D01*
X430511Y258917D01*
X431786Y257162D01*
X432771Y255229D01*
X433441Y253166D01*
X433780Y251024D01*
X433780Y240223D01*
X421523Y240223D01*
G37*
%LPD*%
%LPC*%
G36*
X421523Y237177D02*
X421523Y237177D01*
X433780Y237177D01*
X433780Y226376D01*
X433441Y224234D01*
X432771Y222171D01*
X431786Y220238D01*
X430511Y218483D01*
X428977Y216950D01*
X427222Y215675D01*
X425290Y214690D01*
X423227Y214020D01*
X421523Y213750D01*
X421523Y237177D01*
G37*
%LPD*%
%LPC*%
G36*
X406220Y240223D02*
X406220Y240223D01*
X406220Y251024D01*
X406559Y253166D01*
X407229Y255229D01*
X408214Y257162D01*
X409489Y258917D01*
X411023Y260450D01*
X412778Y261725D01*
X414710Y262710D01*
X416773Y263380D01*
X418477Y263650D01*
X418477Y240223D01*
X406220Y240223D01*
G37*
%LPD*%
%LPC*%
G36*
X416773Y214020D02*
X416773Y214020D01*
X414710Y214690D01*
X412778Y215675D01*
X411023Y216950D01*
X409489Y218483D01*
X408214Y220238D01*
X407229Y222171D01*
X406559Y224234D01*
X406220Y226376D01*
X406220Y237177D01*
X418477Y237177D01*
X418477Y213750D01*
X416773Y214020D01*
G37*
%LPD*%
%LPC*%
G36*
X251523Y331523D02*
X251523Y331523D01*
X251523Y347505D01*
X252361Y347373D01*
X253870Y346882D01*
X255283Y346162D01*
X256567Y345229D01*
X257689Y344107D01*
X258622Y342823D01*
X259342Y341410D01*
X259833Y339901D01*
X260081Y338333D01*
X260081Y331523D01*
X251523Y331523D01*
G37*
%LPD*%
%LPC*%
G36*
X251523Y328477D02*
X251523Y328477D01*
X260081Y328477D01*
X260081Y321667D01*
X259833Y320099D01*
X259342Y318590D01*
X258622Y317177D01*
X257689Y315893D01*
X256567Y314771D01*
X255283Y313838D01*
X253870Y313118D01*
X252361Y312627D01*
X251523Y312495D01*
X251523Y328477D01*
G37*
%LPD*%
%LPC*%
G36*
X239919Y331523D02*
X239919Y331523D01*
X239919Y338333D01*
X240167Y339901D01*
X240658Y341410D01*
X241378Y342823D01*
X242311Y344107D01*
X243433Y345229D01*
X244717Y346162D01*
X246130Y346882D01*
X247639Y347373D01*
X248477Y347505D01*
X248477Y331523D01*
X239919Y331523D01*
G37*
%LPD*%
%LPC*%
G36*
X247639Y312627D02*
X247639Y312627D01*
X246130Y313118D01*
X244717Y313838D01*
X243433Y314771D01*
X242311Y315893D01*
X241378Y317177D01*
X240658Y318590D01*
X240167Y320099D01*
X239919Y321667D01*
X239919Y328477D01*
X248477Y328477D01*
X248477Y312495D01*
X247639Y312627D01*
G37*
%LPD*%
%LPC*%
G36*
X251523Y102303D02*
X251523Y102303D01*
X251523Y111321D01*
X259349Y111321D01*
X259996Y111148D01*
X260575Y110813D01*
X261048Y110340D01*
X261383Y109761D01*
X261556Y109114D01*
X261556Y102303D01*
X251523Y102303D01*
G37*
%LPD*%
%LPC*%
G36*
X238444Y102303D02*
X238444Y102303D01*
X238444Y109114D01*
X238617Y109761D01*
X238952Y110340D01*
X239425Y110813D01*
X240004Y111148D01*
X240651Y111321D01*
X248477Y111321D01*
X248477Y102303D01*
X238444Y102303D01*
G37*
%LPD*%
%LPC*%
G36*
X251523Y90239D02*
X251523Y90239D01*
X251523Y99257D01*
X261556Y99257D01*
X261556Y92446D01*
X261383Y91799D01*
X261048Y91220D01*
X260575Y90747D01*
X259996Y90412D01*
X259349Y90239D01*
X251523Y90239D01*
G37*
%LPD*%
%LPC*%
G36*
X240651Y90239D02*
X240651Y90239D01*
X240004Y90412D01*
X239425Y90747D01*
X238952Y91220D01*
X238617Y91799D01*
X238444Y92446D01*
X238444Y99257D01*
X248477Y99257D01*
X248477Y90239D01*
X240651Y90239D01*
G37*
%LPD*%
%LPC*%
G36*
X179523Y140123D02*
X179523Y140123D01*
X179523Y148681D01*
X185874Y148681D01*
X186521Y148508D01*
X187100Y148173D01*
X187573Y147700D01*
X187908Y147121D01*
X188081Y146474D01*
X188081Y140123D01*
X179523Y140123D01*
G37*
%LPD*%
%LPC*%
G36*
X167919Y140123D02*
X167919Y140123D01*
X167919Y146474D01*
X168092Y147121D01*
X168427Y147700D01*
X168900Y148173D01*
X169479Y148508D01*
X170126Y148681D01*
X176477Y148681D01*
X176477Y140123D01*
X167919Y140123D01*
G37*
%LPD*%
%LPC*%
G36*
X179523Y128519D02*
X179523Y128519D01*
X179523Y137077D01*
X188081Y137077D01*
X188081Y130726D01*
X187908Y130079D01*
X187573Y129500D01*
X187100Y129027D01*
X186521Y128692D01*
X185874Y128519D01*
X179523Y128519D01*
G37*
%LPD*%
%LPC*%
G36*
X170126Y128519D02*
X170126Y128519D01*
X169479Y128692D01*
X168900Y129027D01*
X168427Y129500D01*
X168092Y130079D01*
X167919Y130726D01*
X167919Y137077D01*
X176477Y137077D01*
X176477Y128519D01*
X170126Y128519D01*
G37*
%LPD*%
%LPC*%
G36*
X246023Y221523D02*
X246023Y221523D01*
X246023Y230041D01*
X251334Y230041D01*
X251981Y229868D01*
X252560Y229533D01*
X253033Y229060D01*
X253368Y228481D01*
X253541Y227834D01*
X253541Y221523D01*
X246023Y221523D01*
G37*
%LPD*%
%LPC*%
G36*
X246023Y209959D02*
X246023Y209959D01*
X246023Y218477D01*
X253541Y218477D01*
X253541Y212166D01*
X253368Y211519D01*
X253033Y210940D01*
X252560Y210467D01*
X251981Y210132D01*
X251334Y209959D01*
X246023Y209959D01*
G37*
%LPD*%
%LPC*%
G36*
X517023Y23823D02*
X517023Y23823D01*
X517023Y32461D01*
X519709Y32461D01*
X525661Y26509D01*
X525661Y23823D01*
X517023Y23823D01*
G37*
%LPD*%
%LPC*%
G36*
X415423Y23823D02*
X415423Y23823D01*
X415423Y32461D01*
X418109Y32461D01*
X424061Y26509D01*
X424061Y23823D01*
X415423Y23823D01*
G37*
%LPD*%
%LPC*%
G36*
X212223Y23823D02*
X212223Y23823D01*
X212223Y32461D01*
X214909Y32461D01*
X220861Y26509D01*
X220861Y23823D01*
X212223Y23823D01*
G37*
%LPD*%
%LPC*%
G36*
X161423Y23823D02*
X161423Y23823D01*
X161423Y32461D01*
X164109Y32461D01*
X170061Y26509D01*
X170061Y23823D01*
X161423Y23823D01*
G37*
%LPD*%
%LPC*%
G36*
X85223Y49223D02*
X85223Y49223D01*
X85223Y57861D01*
X87909Y57861D01*
X93861Y51909D01*
X93861Y49223D01*
X85223Y49223D01*
G37*
%LPD*%
%LPC*%
G36*
X263023Y49223D02*
X263023Y49223D01*
X263023Y57861D01*
X265709Y57861D01*
X271661Y51909D01*
X271661Y49223D01*
X263023Y49223D01*
G37*
%LPD*%
%LPC*%
G36*
X339223Y23823D02*
X339223Y23823D01*
X339223Y32461D01*
X341909Y32461D01*
X347861Y26509D01*
X347861Y23823D01*
X339223Y23823D01*
G37*
%LPD*%
%LPC*%
G36*
X403739Y23823D02*
X403739Y23823D01*
X403739Y26509D01*
X409691Y32461D01*
X412377Y32461D01*
X412377Y23823D01*
X403739Y23823D01*
G37*
%LPD*%
%LPC*%
G36*
X505339Y23823D02*
X505339Y23823D01*
X505339Y26509D01*
X511291Y32461D01*
X513977Y32461D01*
X513977Y23823D01*
X505339Y23823D01*
G37*
%LPD*%
%LPC*%
G36*
X327539Y23823D02*
X327539Y23823D01*
X327539Y26509D01*
X333491Y32461D01*
X336177Y32461D01*
X336177Y23823D01*
X327539Y23823D01*
G37*
%LPD*%
%LPC*%
G36*
X200539Y23823D02*
X200539Y23823D01*
X200539Y26509D01*
X206491Y32461D01*
X209177Y32461D01*
X209177Y23823D01*
X200539Y23823D01*
G37*
%LPD*%
%LPC*%
G36*
X149739Y23823D02*
X149739Y23823D01*
X149739Y26509D01*
X155691Y32461D01*
X158377Y32461D01*
X158377Y23823D01*
X149739Y23823D01*
G37*
%LPD*%
%LPC*%
G36*
X454539Y49223D02*
X454539Y49223D01*
X454539Y51909D01*
X460491Y57861D01*
X463177Y57861D01*
X463177Y49223D01*
X454539Y49223D01*
G37*
%LPD*%
%LPC*%
G36*
X251339Y49223D02*
X251339Y49223D01*
X251339Y51909D01*
X257291Y57861D01*
X259977Y57861D01*
X259977Y49223D01*
X251339Y49223D01*
G37*
%LPD*%
%LPC*%
G36*
X73539Y49223D02*
X73539Y49223D01*
X73539Y51909D01*
X79491Y57861D01*
X82177Y57861D01*
X82177Y49223D01*
X73539Y49223D01*
G37*
%LPD*%
%LPC*%
G36*
X263023Y37539D02*
X263023Y37539D01*
X263023Y46177D01*
X271661Y46177D01*
X271661Y43491D01*
X265709Y37539D01*
X263023Y37539D01*
G37*
%LPD*%
%LPC*%
G36*
X85223Y37539D02*
X85223Y37539D01*
X85223Y46177D01*
X93861Y46177D01*
X93861Y43491D01*
X87909Y37539D01*
X85223Y37539D01*
G37*
%LPD*%
%LPC*%
G36*
X257291Y37539D02*
X257291Y37539D01*
X251339Y43491D01*
X251339Y46177D01*
X259977Y46177D01*
X259977Y37539D01*
X257291Y37539D01*
G37*
%LPD*%
%LPC*%
G36*
X79491Y37539D02*
X79491Y37539D01*
X73539Y43491D01*
X73539Y46177D01*
X82177Y46177D01*
X82177Y37539D01*
X79491Y37539D01*
G37*
%LPD*%
%LPC*%
G36*
X460491Y37539D02*
X460491Y37539D01*
X454539Y43491D01*
X454539Y46177D01*
X463177Y46177D01*
X463177Y37539D01*
X460491Y37539D01*
G37*
%LPD*%
%LPC*%
G36*
X320023Y87023D02*
X320023Y87023D01*
X320023Y93041D01*
X325834Y93041D01*
X326481Y92868D01*
X327060Y92533D01*
X327533Y92060D01*
X327868Y91481D01*
X328041Y90834D01*
X328041Y87023D01*
X320023Y87023D01*
G37*
%LPD*%
%LPC*%
G36*
X298023Y283523D02*
X298023Y283523D01*
X298023Y289541D01*
X303834Y289541D01*
X304481Y289368D01*
X305060Y289033D01*
X305533Y288560D01*
X305868Y287981D01*
X306041Y287334D01*
X306041Y283523D01*
X298023Y283523D01*
G37*
%LPD*%
%LPC*%
G36*
X308959Y87023D02*
X308959Y87023D01*
X308959Y90834D01*
X309132Y91481D01*
X309467Y92060D01*
X309940Y92533D01*
X310519Y92868D01*
X311166Y93041D01*
X316977Y93041D01*
X316977Y87023D01*
X308959Y87023D01*
G37*
%LPD*%
%LPC*%
G36*
X286959Y283523D02*
X286959Y283523D01*
X286959Y287334D01*
X287132Y287981D01*
X287467Y288560D01*
X287940Y289033D01*
X288519Y289368D01*
X289166Y289541D01*
X294977Y289541D01*
X294977Y283523D01*
X286959Y283523D01*
G37*
%LPD*%
%LPC*%
G36*
X298023Y274459D02*
X298023Y274459D01*
X298023Y280477D01*
X306041Y280477D01*
X306041Y276666D01*
X305868Y276019D01*
X305533Y275440D01*
X305060Y274967D01*
X304481Y274632D01*
X303834Y274459D01*
X298023Y274459D01*
G37*
%LPD*%
%LPC*%
G36*
X320023Y77959D02*
X320023Y77959D01*
X320023Y83977D01*
X328041Y83977D01*
X328041Y80166D01*
X327868Y79519D01*
X327533Y78940D01*
X327060Y78467D01*
X326481Y78132D01*
X325834Y77959D01*
X320023Y77959D01*
G37*
%LPD*%
%LPC*%
G36*
X289166Y274459D02*
X289166Y274459D01*
X288519Y274632D01*
X287940Y274967D01*
X287467Y275440D01*
X287132Y276019D01*
X286959Y276666D01*
X286959Y280477D01*
X294977Y280477D01*
X294977Y274459D01*
X289166Y274459D01*
G37*
%LPD*%
%LPC*%
G36*
X311166Y77959D02*
X311166Y77959D01*
X310519Y78132D01*
X309940Y78467D01*
X309467Y78940D01*
X309132Y79519D01*
X308959Y80166D01*
X308959Y83977D01*
X316977Y83977D01*
X316977Y77959D01*
X311166Y77959D01*
G37*
%LPD*%
%LPC*%
G36*
X426523Y331923D02*
X426523Y331923D01*
X426523Y339545D01*
X428788Y339545D01*
X434145Y334188D01*
X434145Y331923D01*
X426523Y331923D01*
G37*
%LPD*%
%LPC*%
G36*
X99423Y116523D02*
X99423Y116523D01*
X99423Y124145D01*
X101688Y124145D01*
X107045Y118788D01*
X107045Y116523D01*
X99423Y116523D01*
G37*
%LPD*%
%LPC*%
G36*
X88755Y116523D02*
X88755Y116523D01*
X88755Y118788D01*
X94112Y124145D01*
X96377Y124145D01*
X96377Y116523D01*
X88755Y116523D01*
G37*
%LPD*%
%LPC*%
G36*
X415855Y331923D02*
X415855Y331923D01*
X415855Y334188D01*
X421212Y339545D01*
X423477Y339545D01*
X423477Y331923D01*
X415855Y331923D01*
G37*
%LPD*%
%LPC*%
G36*
X99423Y105855D02*
X99423Y105855D01*
X99423Y113477D01*
X107045Y113477D01*
X107045Y111212D01*
X101688Y105855D01*
X99423Y105855D01*
G37*
%LPD*%
%LPC*%
G36*
X426523Y321255D02*
X426523Y321255D01*
X426523Y328877D01*
X434145Y328877D01*
X434145Y326612D01*
X428788Y321255D01*
X426523Y321255D01*
G37*
%LPD*%
%LPC*%
G36*
X421212Y321255D02*
X421212Y321255D01*
X415855Y326612D01*
X415855Y328877D01*
X423477Y328877D01*
X423477Y321255D01*
X421212Y321255D01*
G37*
%LPD*%
%LPC*%
G36*
X94112Y105855D02*
X94112Y105855D01*
X88755Y111212D01*
X88755Y113477D01*
X96377Y113477D01*
X96377Y105855D01*
X94112Y105855D01*
G37*
%LPD*%
%LPC*%
G36*
X260399Y182849D02*
X260399Y182849D01*
X260399Y186891D01*
X269234Y186891D01*
X269881Y186718D01*
X270460Y186383D01*
X270933Y185910D01*
X271268Y185331D01*
X271441Y184684D01*
X271441Y182849D01*
X260399Y182849D01*
G37*
%LPD*%
%LPC*%
G36*
X260399Y157449D02*
X260399Y157449D01*
X260399Y161491D01*
X269234Y161491D01*
X269881Y161318D01*
X270460Y160983D01*
X270933Y160510D01*
X271268Y159931D01*
X271441Y159284D01*
X271441Y157449D01*
X260399Y157449D01*
G37*
%LPD*%
%LPC*%
G36*
X260399Y170149D02*
X260399Y170149D01*
X260399Y174191D01*
X269234Y174191D01*
X269881Y174018D01*
X270460Y173683D01*
X270933Y173210D01*
X271268Y172631D01*
X271441Y171984D01*
X271441Y170149D01*
X260399Y170149D01*
G37*
%LPD*%
%LPC*%
G36*
X260399Y195549D02*
X260399Y195549D01*
X260399Y199591D01*
X269234Y199591D01*
X269881Y199418D01*
X270460Y199083D01*
X270933Y198610D01*
X271268Y198031D01*
X271441Y197384D01*
X271441Y195549D01*
X260399Y195549D01*
G37*
%LPD*%
%LPC*%
G36*
X246359Y195549D02*
X246359Y195549D01*
X246359Y197384D01*
X246532Y198031D01*
X246867Y198610D01*
X247340Y199083D01*
X247919Y199418D01*
X248566Y199591D01*
X257401Y199591D01*
X257401Y195549D01*
X246359Y195549D01*
G37*
%LPD*%
%LPC*%
G36*
X246359Y182849D02*
X246359Y182849D01*
X246359Y184684D01*
X246532Y185331D01*
X246867Y185910D01*
X247340Y186383D01*
X247919Y186718D01*
X248566Y186891D01*
X257401Y186891D01*
X257401Y182849D01*
X246359Y182849D01*
G37*
%LPD*%
%LPC*%
G36*
X246359Y170149D02*
X246359Y170149D01*
X246359Y171984D01*
X246532Y172631D01*
X246867Y173210D01*
X247340Y173683D01*
X247919Y174018D01*
X248566Y174191D01*
X257401Y174191D01*
X257401Y170149D01*
X246359Y170149D01*
G37*
%LPD*%
%LPC*%
G36*
X246359Y157449D02*
X246359Y157449D01*
X246359Y159284D01*
X246532Y159931D01*
X246867Y160510D01*
X247340Y160983D01*
X247919Y161318D01*
X248566Y161491D01*
X257401Y161491D01*
X257401Y157449D01*
X246359Y157449D01*
G37*
%LPD*%
%LPC*%
G36*
X260399Y188509D02*
X260399Y188509D01*
X260399Y192551D01*
X271441Y192551D01*
X271441Y190716D01*
X271268Y190069D01*
X270933Y189490D01*
X270460Y189017D01*
X269881Y188682D01*
X269234Y188509D01*
X260399Y188509D01*
G37*
%LPD*%
%LPC*%
G36*
X260399Y175809D02*
X260399Y175809D01*
X260399Y179851D01*
X271441Y179851D01*
X271441Y178016D01*
X271268Y177369D01*
X270933Y176790D01*
X270460Y176317D01*
X269881Y175982D01*
X269234Y175809D01*
X260399Y175809D01*
G37*
%LPD*%
%LPC*%
G36*
X260399Y150409D02*
X260399Y150409D01*
X260399Y154451D01*
X271441Y154451D01*
X271441Y152616D01*
X271268Y151969D01*
X270933Y151390D01*
X270460Y150917D01*
X269881Y150582D01*
X269234Y150409D01*
X260399Y150409D01*
G37*
%LPD*%
%LPC*%
G36*
X260399Y163109D02*
X260399Y163109D01*
X260399Y167151D01*
X271441Y167151D01*
X271441Y165316D01*
X271268Y164669D01*
X270933Y164090D01*
X270460Y163617D01*
X269881Y163282D01*
X269234Y163109D01*
X260399Y163109D01*
G37*
%LPD*%
%LPC*%
G36*
X248566Y188509D02*
X248566Y188509D01*
X247919Y188682D01*
X247340Y189017D01*
X246867Y189490D01*
X246532Y190069D01*
X246359Y190716D01*
X246359Y192551D01*
X257401Y192551D01*
X257401Y188509D01*
X248566Y188509D01*
G37*
%LPD*%
%LPC*%
G36*
X248566Y150409D02*
X248566Y150409D01*
X247919Y150582D01*
X247340Y150917D01*
X246867Y151390D01*
X246532Y151969D01*
X246359Y152616D01*
X246359Y154451D01*
X257401Y154451D01*
X257401Y150409D01*
X248566Y150409D01*
G37*
%LPD*%
%LPC*%
G36*
X248566Y175809D02*
X248566Y175809D01*
X247919Y175982D01*
X247340Y176317D01*
X246867Y176790D01*
X246532Y177369D01*
X246359Y178016D01*
X246359Y179851D01*
X257401Y179851D01*
X257401Y175809D01*
X248566Y175809D01*
G37*
%LPD*%
%LPC*%
G36*
X248566Y163109D02*
X248566Y163109D01*
X247919Y163282D01*
X247340Y163617D01*
X246867Y164090D01*
X246532Y164669D01*
X246359Y165316D01*
X246359Y167151D01*
X257401Y167151D01*
X257401Y163109D01*
X248566Y163109D01*
G37*
%LPD*%
%LPC*%
G36*
X424999Y330399D02*
X424999Y330399D01*
X424999Y330401D01*
X425001Y330401D01*
X425001Y330399D01*
X424999Y330399D01*
G37*
%LPD*%
%LPC*%
G36*
X419999Y238699D02*
X419999Y238699D01*
X419999Y238701D01*
X420001Y238701D01*
X420001Y238699D01*
X419999Y238699D01*
G37*
%LPD*%
%LPC*%
G36*
X249999Y329999D02*
X249999Y329999D01*
X249999Y330001D01*
X250001Y330001D01*
X250001Y329999D01*
X249999Y329999D01*
G37*
%LPD*%
%LPC*%
G36*
X261499Y47699D02*
X261499Y47699D01*
X261499Y47701D01*
X261501Y47701D01*
X261501Y47699D01*
X261499Y47699D01*
G37*
%LPD*%
%LPC*%
G36*
X83699Y47699D02*
X83699Y47699D01*
X83699Y47701D01*
X83701Y47701D01*
X83701Y47699D01*
X83699Y47699D01*
G37*
%LPD*%
%LPC*%
G36*
X177999Y138599D02*
X177999Y138599D01*
X177999Y138601D01*
X178001Y138601D01*
X178001Y138599D01*
X177999Y138599D01*
G37*
%LPD*%
%LPC*%
G36*
X97899Y114999D02*
X97899Y114999D01*
X97899Y115001D01*
X97901Y115001D01*
X97901Y114999D01*
X97899Y114999D01*
G37*
%LPD*%
%LPC*%
G36*
X296499Y281999D02*
X296499Y281999D01*
X296499Y282001D01*
X296501Y282001D01*
X296501Y281999D01*
X296499Y281999D01*
G37*
%LPD*%
%LPC*%
G36*
X318499Y85499D02*
X318499Y85499D01*
X318499Y85501D01*
X318501Y85501D01*
X318501Y85499D01*
X318499Y85499D01*
G37*
%LPD*%
%LPC*%
G36*
X249999Y100779D02*
X249999Y100779D01*
X249999Y100781D01*
X250001Y100781D01*
X250001Y100779D01*
X249999Y100779D01*
G37*
%LPD*%
D10*
X97900Y115000D03*
D11*
X47100Y115000D03*
D12*
X210100Y155950D03*
X210100Y168650D03*
X210100Y194050D03*
X258900Y194050D03*
X258900Y181350D03*
X258900Y168650D03*
X258900Y155950D03*
D13*
X135000Y288100D03*
X135000Y211900D03*
D14*
X75000Y293100D03*
X75000Y216900D03*
D10*
X47100Y187500D03*
X97900Y187500D03*
D15*
X300800Y322460D02*
X300800Y337540D01*
X275400Y337540D02*
X275400Y322460D01*
X250000Y322460D02*
X250000Y337540D01*
X224600Y337540D02*
X224600Y322460D01*
X199200Y322460D02*
X199200Y337540D01*
D16*
X173700Y330000D03*
X21300Y330000D03*
D10*
X179600Y260000D03*
X230400Y260000D03*
D17*
X225500Y220000D03*
X244500Y220000D03*
D18*
X420000Y184220D03*
X420000Y155780D03*
X220000Y100780D03*
X220000Y129220D03*
X250000Y129220D03*
X250000Y100780D03*
D19*
X425000Y279600D03*
X425000Y330400D03*
D20*
X420000Y97540D02*
X420000Y75061D01*
X420000Y227461D02*
X420000Y249940D01*
D21*
X365000Y342500D03*
X365000Y292500D03*
D22*
X178000Y214800D03*
X178000Y176700D03*
X178000Y138600D03*
X178000Y100500D03*
X355800Y94150D03*
X355800Y132250D03*
X355800Y183050D03*
X355800Y221150D03*
D16*
X566300Y47700D03*
X566300Y22300D03*
X540900Y47700D03*
X540900Y22300D03*
X515500Y47700D03*
X515500Y22300D03*
X490100Y47700D03*
X490100Y22300D03*
X464700Y47700D03*
X464700Y22300D03*
X439300Y47700D03*
X439300Y22300D03*
X413900Y47700D03*
X413900Y22300D03*
X388500Y47700D03*
X388500Y22300D03*
X363100Y47700D03*
X363100Y22300D03*
X337700Y47700D03*
X337700Y22300D03*
X312300Y47700D03*
X312300Y22300D03*
X286900Y47700D03*
X286900Y22300D03*
X261500Y47700D03*
X261500Y22300D03*
X236100Y47700D03*
X236100Y22300D03*
X210700Y47700D03*
X210700Y22300D03*
X185300Y47700D03*
X185300Y22300D03*
X159900Y47700D03*
X159900Y22300D03*
X134500Y47700D03*
X134500Y22300D03*
X109100Y47700D03*
X109100Y22300D03*
X83700Y47700D03*
X83700Y22300D03*
D18*
X317500Y198280D03*
X317500Y226720D03*
X317500Y166720D03*
X317500Y138280D03*
D23*
X318500Y272500D03*
X296500Y282000D03*
X296500Y263000D03*
X296500Y95000D03*
X318500Y85500D03*
X318500Y104500D03*
D24*
X295656Y263144D02*
X286512Y263144D01*
X281432Y268224D01*
X281432Y299720D01*
X295656Y313944D01*
X295656Y314960D01*
X300736Y320040D01*
X300736Y329184D01*
X295656Y263144D02*
X296500Y263000D01*
X300736Y329184D02*
X300800Y330000D01*
D25*
X209296Y194056D02*
X204216Y194056D01*
X188976Y178816D01*
X180848Y178816D01*
X178816Y176784D01*
X209296Y194056D02*
X210100Y194050D01*
X178816Y176784D02*
X178000Y176700D01*
X135128Y208280D02*
X135128Y211328D01*
X135128Y208280D02*
X155448Y187960D01*
X155448Y183896D01*
X161544Y177800D01*
X175768Y177800D01*
X135128Y211328D02*
X135000Y211900D01*
X175768Y177800D02*
X178000Y176700D01*
X177800Y215392D02*
X161544Y215392D01*
X156464Y220472D01*
X156464Y221488D01*
X155448Y222504D01*
X155448Y224536D01*
X145288Y234696D01*
X97536Y234696D01*
X79248Y216408D01*
X75184Y216408D01*
X177800Y215392D02*
X178000Y214800D01*
X75184Y216408D02*
X75000Y216900D01*
D24*
X296672Y240792D02*
X296672Y95504D01*
X296672Y240792D02*
X277368Y260096D01*
X277368Y314960D01*
X276352Y315976D01*
X276352Y329184D01*
X296672Y95504D02*
X296500Y95000D01*
X276352Y329184D02*
X275400Y330000D01*
D26*
X225552Y219456D02*
X225552Y208280D01*
X231648Y202184D01*
X231648Y185928D01*
X214376Y168656D01*
X210312Y168656D01*
X225552Y219456D02*
X225500Y220000D01*
X210312Y168656D02*
X210100Y168650D01*
X220472Y129032D02*
X249936Y129032D01*
X220472Y129032D02*
X220000Y129220D01*
X249936Y129032D02*
X250000Y129220D01*
X210312Y148336D02*
X210312Y155448D01*
X210312Y148336D02*
X215392Y143256D01*
X215392Y134112D01*
X219456Y130048D01*
X210312Y155448D02*
X210100Y155950D01*
X219456Y130048D02*
X220000Y129220D01*
X219456Y100584D02*
X178816Y100584D01*
X219456Y100584D02*
X220000Y100780D01*
X178816Y100584D02*
X178000Y100500D01*
D25*
X420624Y184912D02*
X420624Y199136D01*
X440944Y219456D01*
X440944Y258064D01*
X423672Y275336D01*
X423672Y278384D01*
X424688Y279400D01*
X420624Y184912D02*
X420000Y184220D01*
X424688Y279400D02*
X425000Y279600D01*
X419608Y155448D02*
X395224Y155448D01*
X378460Y138684D02*
X372872Y133096D01*
X378460Y138684D02*
X395224Y155448D01*
X372872Y133096D02*
X356616Y133096D01*
X419608Y155448D02*
X420000Y155780D01*
X356616Y133096D02*
X355800Y132250D01*
X419608Y97536D02*
X419608Y86360D01*
X419608Y97536D02*
X378460Y138684D01*
X419608Y86360D02*
X420000Y86300D01*
D24*
X318008Y167640D02*
X318008Y198120D01*
X318008Y167640D02*
X317500Y166720D01*
X318008Y198120D02*
X317500Y198280D01*
X319024Y167640D02*
X342392Y167640D01*
X344424Y165608D01*
X389128Y165608D01*
X319024Y167640D02*
X317500Y166720D01*
D27*
X389128Y165608D03*
D24*
X319024Y228600D02*
X319024Y272288D01*
X319024Y228600D02*
X318008Y227584D01*
X319024Y272288D02*
X318500Y272500D01*
X318008Y227584D02*
X317500Y226720D01*
X477520Y34544D02*
X465328Y22352D01*
X477520Y34544D02*
X477520Y39624D01*
X475488Y41656D01*
X475488Y53848D01*
X477520Y55880D01*
X477520Y123952D01*
X429768Y171704D01*
X427736Y171704D01*
X426720Y170688D01*
X408432Y170688D01*
X407416Y169672D01*
X370840Y206248D01*
X345440Y206248D01*
X324104Y227584D01*
X319024Y227584D01*
X464700Y22300D02*
X465328Y22352D01*
X319024Y227584D02*
X317500Y226720D01*
X319024Y137160D02*
X319024Y115824D01*
X319024Y104648D01*
X319024Y137160D02*
X318008Y138176D01*
X319024Y104648D02*
X318500Y104500D01*
X318008Y138176D02*
X317500Y138280D01*
D27*
X319024Y115824D03*
M02*
