G04 EAGLE Gerber RS-274X export*
G75*
%MOMM*%
%FSLAX34Y34*%
%LPD*%
%IN*%
%IPPOS*%
%AMOC8*
5,1,8,0,0,1.08239X$1,22.5*%
G01*
%ADD10C,0.254000*%


D10*
X0Y0D02*
X650000Y0D01*
X650000Y370000D01*
X0Y370000D01*
X0Y0D01*
X628750Y34509D02*
X628680Y33529D01*
X628540Y32557D01*
X628331Y31597D01*
X628055Y30655D01*
X627711Y29735D01*
X627303Y28841D01*
X626833Y27979D01*
X626302Y27153D01*
X625713Y26367D01*
X625070Y25625D01*
X624375Y24930D01*
X623633Y24287D01*
X622847Y23698D01*
X622021Y23167D01*
X621159Y22697D01*
X620265Y22289D01*
X619345Y21945D01*
X618403Y21669D01*
X617443Y21460D01*
X616471Y21320D01*
X615491Y21250D01*
X614509Y21250D01*
X613529Y21320D01*
X612557Y21460D01*
X611597Y21669D01*
X610655Y21945D01*
X609735Y22289D01*
X608841Y22697D01*
X607979Y23167D01*
X607153Y23698D01*
X606367Y24287D01*
X605625Y24930D01*
X604930Y25625D01*
X604287Y26367D01*
X603698Y27153D01*
X603167Y27979D01*
X602697Y28841D01*
X602289Y29735D01*
X601945Y30655D01*
X601669Y31597D01*
X601460Y32557D01*
X601320Y33529D01*
X601250Y34509D01*
X601250Y35491D01*
X601320Y36471D01*
X601460Y37443D01*
X601669Y38403D01*
X601945Y39345D01*
X602289Y40265D01*
X602697Y41159D01*
X603167Y42021D01*
X603698Y42847D01*
X604287Y43633D01*
X604930Y44375D01*
X605625Y45070D01*
X606367Y45713D01*
X607153Y46302D01*
X607979Y46833D01*
X608841Y47303D01*
X609735Y47711D01*
X610655Y48055D01*
X611597Y48331D01*
X612557Y48540D01*
X613529Y48680D01*
X614509Y48750D01*
X615491Y48750D01*
X616471Y48680D01*
X617443Y48540D01*
X618403Y48331D01*
X619345Y48055D01*
X620265Y47711D01*
X621159Y47303D01*
X622021Y46833D01*
X622847Y46302D01*
X623633Y45713D01*
X624375Y45070D01*
X625070Y44375D01*
X625713Y43633D01*
X626302Y42847D01*
X626833Y42021D01*
X627303Y41159D01*
X627711Y40265D01*
X628055Y39345D01*
X628331Y38403D01*
X628540Y37443D01*
X628680Y36471D01*
X628750Y35491D01*
X628750Y34509D01*
X48750Y34509D02*
X48680Y33529D01*
X48540Y32557D01*
X48331Y31597D01*
X48055Y30655D01*
X47711Y29735D01*
X47303Y28841D01*
X46833Y27979D01*
X46302Y27153D01*
X45713Y26367D01*
X45070Y25625D01*
X44375Y24930D01*
X43633Y24287D01*
X42847Y23698D01*
X42021Y23167D01*
X41159Y22697D01*
X40265Y22289D01*
X39345Y21945D01*
X38403Y21669D01*
X37443Y21460D01*
X36471Y21320D01*
X35491Y21250D01*
X34509Y21250D01*
X33529Y21320D01*
X32557Y21460D01*
X31597Y21669D01*
X30655Y21945D01*
X29735Y22289D01*
X28841Y22697D01*
X27979Y23167D01*
X27153Y23698D01*
X26367Y24287D01*
X25625Y24930D01*
X24930Y25625D01*
X24287Y26367D01*
X23698Y27153D01*
X23167Y27979D01*
X22697Y28841D01*
X22289Y29735D01*
X21945Y30655D01*
X21669Y31597D01*
X21460Y32557D01*
X21320Y33529D01*
X21250Y34509D01*
X21250Y35491D01*
X21320Y36471D01*
X21460Y37443D01*
X21669Y38403D01*
X21945Y39345D01*
X22289Y40265D01*
X22697Y41159D01*
X23167Y42021D01*
X23698Y42847D01*
X24287Y43633D01*
X24930Y44375D01*
X25625Y45070D01*
X26367Y45713D01*
X27153Y46302D01*
X27979Y46833D01*
X28841Y47303D01*
X29735Y47711D01*
X30655Y48055D01*
X31597Y48331D01*
X32557Y48540D01*
X33529Y48680D01*
X34509Y48750D01*
X35491Y48750D01*
X36471Y48680D01*
X37443Y48540D01*
X38403Y48331D01*
X39345Y48055D01*
X40265Y47711D01*
X41159Y47303D01*
X42021Y46833D01*
X42847Y46302D01*
X43633Y45713D01*
X44375Y45070D01*
X45070Y44375D01*
X45713Y43633D01*
X46302Y42847D01*
X46833Y42021D01*
X47303Y41159D01*
X47711Y40265D01*
X48055Y39345D01*
X48331Y38403D01*
X48540Y37443D01*
X48680Y36471D01*
X48750Y35491D01*
X48750Y34509D01*
X628750Y264509D02*
X628680Y263529D01*
X628540Y262557D01*
X628331Y261597D01*
X628055Y260655D01*
X627711Y259735D01*
X627303Y258841D01*
X626833Y257979D01*
X626302Y257153D01*
X625713Y256367D01*
X625070Y255625D01*
X624375Y254930D01*
X623633Y254287D01*
X622847Y253698D01*
X622021Y253167D01*
X621159Y252697D01*
X620265Y252289D01*
X619345Y251945D01*
X618403Y251669D01*
X617443Y251460D01*
X616471Y251320D01*
X615491Y251250D01*
X614509Y251250D01*
X613529Y251320D01*
X612557Y251460D01*
X611597Y251669D01*
X610655Y251945D01*
X609735Y252289D01*
X608841Y252697D01*
X607979Y253167D01*
X607153Y253698D01*
X606367Y254287D01*
X605625Y254930D01*
X604930Y255625D01*
X604287Y256367D01*
X603698Y257153D01*
X603167Y257979D01*
X602697Y258841D01*
X602289Y259735D01*
X601945Y260655D01*
X601669Y261597D01*
X601460Y262557D01*
X601320Y263529D01*
X601250Y264509D01*
X601250Y265491D01*
X601320Y266471D01*
X601460Y267443D01*
X601669Y268403D01*
X601945Y269345D01*
X602289Y270265D01*
X602697Y271159D01*
X603167Y272021D01*
X603698Y272847D01*
X604287Y273633D01*
X604930Y274375D01*
X605625Y275070D01*
X606367Y275713D01*
X607153Y276302D01*
X607979Y276833D01*
X608841Y277303D01*
X609735Y277711D01*
X610655Y278055D01*
X611597Y278331D01*
X612557Y278540D01*
X613529Y278680D01*
X614509Y278750D01*
X615491Y278750D01*
X616471Y278680D01*
X617443Y278540D01*
X618403Y278331D01*
X619345Y278055D01*
X620265Y277711D01*
X621159Y277303D01*
X622021Y276833D01*
X622847Y276302D01*
X623633Y275713D01*
X624375Y275070D01*
X625070Y274375D01*
X625713Y273633D01*
X626302Y272847D01*
X626833Y272021D01*
X627303Y271159D01*
X627711Y270265D01*
X628055Y269345D01*
X628331Y268403D01*
X628540Y267443D01*
X628680Y266471D01*
X628750Y265491D01*
X628750Y264509D01*
X48750Y264509D02*
X48680Y263529D01*
X48540Y262557D01*
X48331Y261597D01*
X48055Y260655D01*
X47711Y259735D01*
X47303Y258841D01*
X46833Y257979D01*
X46302Y257153D01*
X45713Y256367D01*
X45070Y255625D01*
X44375Y254930D01*
X43633Y254287D01*
X42847Y253698D01*
X42021Y253167D01*
X41159Y252697D01*
X40265Y252289D01*
X39345Y251945D01*
X38403Y251669D01*
X37443Y251460D01*
X36471Y251320D01*
X35491Y251250D01*
X34509Y251250D01*
X33529Y251320D01*
X32557Y251460D01*
X31597Y251669D01*
X30655Y251945D01*
X29735Y252289D01*
X28841Y252697D01*
X27979Y253167D01*
X27153Y253698D01*
X26367Y254287D01*
X25625Y254930D01*
X24930Y255625D01*
X24287Y256367D01*
X23698Y257153D01*
X23167Y257979D01*
X22697Y258841D01*
X22289Y259735D01*
X21945Y260655D01*
X21669Y261597D01*
X21460Y262557D01*
X21320Y263529D01*
X21250Y264509D01*
X21250Y265491D01*
X21320Y266471D01*
X21460Y267443D01*
X21669Y268403D01*
X21945Y269345D01*
X22289Y270265D01*
X22697Y271159D01*
X23167Y272021D01*
X23698Y272847D01*
X24287Y273633D01*
X24930Y274375D01*
X25625Y275070D01*
X26367Y275713D01*
X27153Y276302D01*
X27979Y276833D01*
X28841Y277303D01*
X29735Y277711D01*
X30655Y278055D01*
X31597Y278331D01*
X32557Y278540D01*
X33529Y278680D01*
X34509Y278750D01*
X35491Y278750D01*
X36471Y278680D01*
X37443Y278540D01*
X38403Y278331D01*
X39345Y278055D01*
X40265Y277711D01*
X41159Y277303D01*
X42021Y276833D01*
X42847Y276302D01*
X43633Y275713D01*
X44375Y275070D01*
X45070Y274375D01*
X45713Y273633D01*
X46302Y272847D01*
X46833Y272021D01*
X47303Y271159D01*
X47711Y270265D01*
X48055Y269345D01*
X48331Y268403D01*
X48540Y267443D01*
X48680Y266471D01*
X48750Y265491D01*
X48750Y264509D01*
M02*
