G04 EAGLE Gerber RS-274X export*
G75*
%MOMM*%
%FSLAX34Y34*%
%LPD*%
%INSoldermask Bottom*%
%IPPOS*%
%AMOC8*
5,1,8,0,0,1.08239X$1,22.5*%
G01*
%ADD10C,2.851600*%
%ADD11P,1.539592X8X22.500000*%
%ADD12C,1.422400*%
%ADD13R,2.101600X0.701600*%
%ADD14C,1.801600*%
%ADD15P,1.539592X8X292.500000*%
%ADD16C,1.609600*%
%ADD17P,1.759533X8X202.500000*%
%ADD18R,1.401600X1.601600*%
%ADD19R,1.904600X1.701600*%
%ADD20P,1.539592X8X112.500000*%
%ADD21C,2.349500*%
%ADD22C,1.524000*%
%ADD23R,1.609600X1.609600*%
%ADD24R,1.501600X1.101600*%
%ADD25C,0.858000*%


D10*
X615000Y35000D03*
X35000Y35000D03*
X615000Y265000D03*
X35000Y265000D03*
D11*
X97900Y115000D03*
D12*
X47100Y115000D03*
D13*
X210100Y155950D03*
X210100Y168650D03*
X210100Y194050D03*
X258900Y194050D03*
X258900Y181350D03*
X258900Y168650D03*
X258900Y155950D03*
D14*
X135000Y288100D03*
X135000Y211900D03*
D15*
X75000Y293100D03*
X75000Y216900D03*
D11*
X47100Y187500D03*
X97900Y187500D03*
D16*
X300800Y322460D02*
X300800Y337540D01*
X275400Y337540D02*
X275400Y322460D01*
X250000Y322460D02*
X250000Y337540D01*
X224600Y337540D02*
X224600Y322460D01*
X199200Y322460D02*
X199200Y337540D01*
D17*
X173700Y330000D03*
X21300Y330000D03*
D11*
X179600Y260000D03*
X230400Y260000D03*
D18*
X225500Y220000D03*
X244500Y220000D03*
D19*
X420000Y184220D03*
X420000Y155780D03*
X220000Y100780D03*
X220000Y129220D03*
X250000Y129220D03*
X250000Y100780D03*
D20*
X425000Y279600D03*
X425000Y330400D03*
D21*
X420000Y97540D02*
X420000Y75061D01*
X420000Y227461D02*
X420000Y249940D01*
D22*
X365000Y342500D03*
X365000Y292500D03*
D23*
X178000Y214800D03*
X178000Y176700D03*
X178000Y138600D03*
X178000Y100500D03*
X355800Y94150D03*
X355800Y132250D03*
X355800Y183050D03*
X355800Y221150D03*
D17*
X566300Y47700D03*
X566300Y22300D03*
X540900Y47700D03*
X540900Y22300D03*
X515500Y47700D03*
X515500Y22300D03*
X490100Y47700D03*
X490100Y22300D03*
X464700Y47700D03*
X464700Y22300D03*
X439300Y47700D03*
X439300Y22300D03*
X413900Y47700D03*
X413900Y22300D03*
X388500Y47700D03*
X388500Y22300D03*
X363100Y47700D03*
X363100Y22300D03*
X337700Y47700D03*
X337700Y22300D03*
X312300Y47700D03*
X312300Y22300D03*
X286900Y47700D03*
X286900Y22300D03*
X261500Y47700D03*
X261500Y22300D03*
X236100Y47700D03*
X236100Y22300D03*
X210700Y47700D03*
X210700Y22300D03*
X185300Y47700D03*
X185300Y22300D03*
X159900Y47700D03*
X159900Y22300D03*
X134500Y47700D03*
X134500Y22300D03*
X109100Y47700D03*
X109100Y22300D03*
X83700Y47700D03*
X83700Y22300D03*
D19*
X317500Y198280D03*
X317500Y226720D03*
X317500Y166720D03*
X317500Y138280D03*
D24*
X318500Y272500D03*
X296500Y282000D03*
X296500Y263000D03*
X296500Y95000D03*
X318500Y85500D03*
X318500Y104500D03*
D25*
X389128Y165608D03*
X319024Y115824D03*
M02*
